<?xml version="1.0" encoding="UTF-8"?>
<svg xmlns="http://www.w3.org/2000/svg" version="1.1" viewBox="0 0 915 96">
  <defs>
    <style>
      .cls-1 {
        fill: #f58220;
      }

      .cls-2 {
        fill: #005cab;
      }

      .cls-3 {
        fill-rule: evenodd;
      }

      .cls-3, .cls-4 {
        fill: #fff;
      }

      .cls-5 {
        fill: #7dc242;
      }
    </style>
  </defs>
  <!-- Generator: Adobe Illustrator 28.7.1, SVG Export Plug-In . SVG Version: 1.2.0 Build 142)  -->
  <g>
    <g id="Layer_1">
      <g>
        <g>
          <path class="cls-2" d="M452.6,17.1l4.8,42.8h.2l5.8-42.8h14.5l6.3,42.8h.2l4.3-42.8h15.6l-10.6,61.8h-17.7l-5.4-41.6h-.2l-5.4,41.6h-17.7l-10.6-61.8h15.6Z"/>
          <path class="cls-2" d="M544.8,17.1v13.2h-20.5v10.6h19.2v12.6h-19.2v12.3h21.3v13.2h-37.4V17.1h36.6Z"/>
          <path class="cls-2" d="M566.2,17.1v15.6c0,11-4.1,16.5-14.5,16.8v-7.4c3.6-.4,5.5-2,5.5-7.3v-1h-5.5v-16.6h14.5Z"/>
          <path class="cls-2" d="M586.1,17.1l6.5,46.6h.2l6.5-46.6h17.1l-13.3,61.8h-20.8l-13.3-61.8h17.1Z"/>
          <path class="cls-2" d="M655.6,17.1v13.2h-20.5v10.6h19.2v12.6h-19.2v12.3h21.3v13.2h-37.4V17.1h36.6Z"/>
          <path class="cls-2" d="M726.4,36.7h-15.6c0-4.4-.2-9.9-4.6-9.9s-5.8,4.8-5.8,21.2.4,21.2,5.5,21.2,5.5-3,5.5-13h-5.7v-10.9h20.8v33.6h-10.9l-.3-5.5h-.2c-1.7,4.4-6.1,6.7-13.3,6.7-16.4,0-17.8-11.9-17.8-31.9s3.6-32.4,22.9-32.4,19.7,7.1,19.7,20.8Z"/>
          <path class="cls-2" d="M775.3,48c0,22.1-4.9,32.1-22.1,32.1s-22.1-10.1-22.1-32.1,5.3-32.1,22.1-32.1,22.1,10,22.1,32.1ZM753.2,69.2c5,0,5.5-5.2,5.5-21.2s-.9-21.2-5.5-21.2-5.4,5.7-5.4,21.2.7,21.2,5.5,21.2Z"/>
          <path class="cls-2" d="M817.4,17.1v13.7h-12.1v48.1h-16.1V30.8h-12.1v-13.7h40.3Z"/>
          <path class="cls-2" d="M859.1,17.1v61.8h-16.1V17.1h16.1Z"/>
          <path class="cls-2" d="M902.5,17.1v13.7h-12.1v48.1h-16.1V30.8h-12.1v-13.7h40.3Z"/>
        </g>
        <g>
          <g>
            <rect class="cls-2" x="290.6" y="17.4" width="62.3" height="62.3" rx="3.7" ry="3.7"/>
            <g>
              <path class="cls-4" d="M306.8,43v7.5c0,1.2.9,2.1,2.1,2.1h26.3c1.2,0,2.1-.9,2.1-2.1v-7.5c0-1.9,1.1-3.6,2.7-4.4v-2.3c0-2.6-2.1-4.7-4.7-4.7h-26.6c-2.6,0-4.7,2.1-4.7,4.7v2.3c1.6.8,2.7,2.5,2.7,4.4Z"/>
              <path class="cls-4" d="M342.2,40.1c-1.6,0-2.9,1.3-2.9,2.9v7.5c0,2.3-1.9,4.1-4.1,4.1h-26.3c-2.3,0-4.1-1.9-4.1-4.1v-7.5c0-1.6-1.3-2.9-2.9-2.9s-2.9,1.3-2.9,2.9v7.5c0,5.5,4.5,9.9,9.9,9.9h0l-2.2,9.3h1.6l3.6-9.3h21.3l3.6,9.3h1.6l-2.2-9.4c5.1-.4,9.1-4.7,9.1-9.9v-7.5c0-1.6-1.3-2.9-2.9-2.9Z"/>
            </g>
          </g>
          <g>
            <rect class="cls-2" x="82.1" y="17.4" width="62.3" height="62.3" rx="3.7" ry="3.7"/>
            <path class="cls-3" d="M131.7,50.1c-4.5,0-8.1,3.6-8.1,8.1s3.6,8.1,8.1,8.1,8.1-3.6,8.1-8.1-3.6-8.1-8.1-8.1h0ZM131.7,53.4c2.7,0,4.8,2.2,4.8,4.8s-2.2,4.8-4.8,4.8-4.8-2.2-4.8-4.8,2.2-4.8,4.8-4.8h0ZM131.7,56.5c1,0,1.8.8,1.8,1.8s-.8,1.8-1.8,1.8-1.8-.8-1.8-1.8.8-1.8,1.8-1.8h0ZM94.5,49.3c-4.7,0-8.6,3.8-8.6,8.6s3.8,8.6,8.6,8.6,8.6-3.8,8.6-8.6-3.8-8.6-8.6-8.6h0ZM94.5,52.7c2.8,0,5.1,2.3,5.1,5.1s-2.3,5.1-5.1,5.1-5.1-2.3-5.1-5.1,2.3-5.1,5.1-5.1h0ZM94.5,55.9c1,0,1.9.8,1.9,1.9s-.8,1.9-1.9,1.9-1.9-.8-1.9-1.9.8-1.9,1.9-1.9h0ZM107.3,61.3c-.9,0-1.4-.4-1.5-1.4-.2-5.8-.2-12.1-6.5-14.3-1.7-.6-11.7-4.2-11.7-4.2l.4-1,3.8,1.3s1.4-1.5,1.7-1.8c.4-.3.8-.3,1.4,0,.6.2,5.5,2.1,5.5,2.1,2.1-.2,2.6,0,5.4,1.3,1.5.7,4.4.6,6.2,0,1.8-.7,5.8-2.9,6.4-3.3.6-.4,1.2-.4,1.8-.4.6,0,2.8.2,2.8.2,0,0,.2-.5.5-1.1l-2.2-1.8h-2.7c-.3-.1-.5-.4-.5-.7,0-.3.3-.5.6-.5h2.8c.1.1.2.2.3.3l.4.3v-1.7c.1,0,0-1.1,0-1.1-.3.2-.6.3-.9.3s-.4,0-.6-.1l.9-2.9c.7.1,1.2.7,1.2,1.5s0,.5-.2.7l.3,1.6s0,0,0,0l-.2,2.1,1.2,1c.1-.3.2-.5.3-.6.3-.5.8-.6,1.3,0,3.3,3.1,4.7,4.1,9.4,5,1.1.2,1.9.5,2.8,1.2.5.4,2.5,2.3,2.7,2.5.2.2.2.6,0,1.1-.2,1-.6,2-1.2,2.8l-4.1-3.3c-.5-.4-1.4-1-2.4-1.2l-6.1-1.1c-2.1-.4-2.3,0-2.7.6-1,1.4-2.9,6.7-3.3,8.7,0,.4-.2.9-.3,1.5l-9.4-.3v2.1c-.1.7.4,1.3,1.1,1.3l7.8.3c-.2,1.9-.4,3.7-.4,3.7l-12.6-.5h0ZM100.1,46.7l-10.8-2.9-.5,2,10.8,2.9.5-2h0ZM127.9,44.7l-2,.7c-.2,0-.3.3-.2.5h0c0,.2.3.3.5.2l2-.7c.2,0,.3-.3.2-.5h0c0-.2-.3-.3-.5-.2h0ZM129.4,49c.2,0,.4,0,.5.2h0c0,.2,0,.4-.2.5l-2,.7c-.2,0-.4,0-.5-.2h0c0-.2,0-.4.2-.5l2-.7h0ZM129.1,48.1l-2,.7c-.2,0-.3.3-.2.5h0c0,.2.3.3.5.2l2-.7c.2,0,.3-.3.2-.5h0c0-.2-.3-.3-.5-.2h0ZM128.8,47.3l-2,.7c-.2,0-.3.3-.2.5h0c0,.2.3.3.5.2l2-.7c.2,0,.3-.3.2-.5h0c0-.2-.3-.3-.5-.2h0ZM128.5,46.4l-2,.7c-.2,0-.3.3-.2.5h0c0,.2.3.3.5.2l2-.7c.2,0,.3-.3.2-.5h0c0-.2-.3-.3-.5-.2h0ZM128.2,45.6l-2,.7c-.2,0-.3.3-.2.5h0c0,.2.3.3.5.2l2-.7c.2,0,.3-.3.2-.5h0c0-.2-.3-.3-.5-.2Z"/>
          </g>
          <g>
            <rect class="cls-5" x="12.5" y="17.4" width="62.3" height="62.3" rx="3.7" ry="3.7"/>
            <path class="cls-4" d="M67.9,53.8c.4-10-4-17.3-8.2-18.3s-4,0-6,.3c-2,.4-4,.9-6.3.3s-4-1.8-5.5-3.1c-1.6-1.3-3.1-2.5-5.2-3-4.2-1-11.4,3.6-15.5,12.8-1.8,4.1-3,7.9-3.2,10.9-.3,3.1.4,5.2,1.9,6.1.4.2.8.4,1.2.5h0c2.8.7,6.3-1.2,7.3-1.9l.4-.3c2-1.4,4.3-2.9,5.4-3.2,1.5-.4,5.6.3,8.6,1s7,1.9,8.2,2.9c.8.7,2.2,3.1,3.4,5.3l.2.4c.6,1.1,2.9,4.3,5.7,4.9s.9.1,1.3.1c1.8-.2,3.3-1.8,4.5-4.6,1.1-2.8,1.8-6.7,1.9-11.2ZM39.4,45.9c0,.2-.2.3-.4.2l-3.3-.8c-.2,0-.3,0-.4.2l-.8,3.4c0,.2-.2.3-.4.2l-2.6-.6c-.2,0-.3-.2-.2-.4l.8-3.4c0-.2,0-.3-.2-.4l-3.3-.8c-.2,0-.3-.2-.2-.4l.6-2.6c0-.2.2-.3.4-.2l3.3.8c.2,0,.3,0,.4-.2l.8-3.4c0-.2.2-.3.4-.2l2.6.6c.2,0,.3.2.2.4l-.8,3.4c0,.2,0,.3.2.4l3.3.8c.2,0,.3.2.2.4l-.6,2.6ZM53.4,49.3c-.9.6-2.2.3-2.8-.6-.6-.9-.3-2.2.7-2.8.9-.6,2.2-.3,2.8.6.6.9.3,2.2-.7,2.8ZM56.7,54.7c-.9.6-2.2.3-2.8-.6s-.3-2.2.7-2.8,2.2-.3,2.8.6c.6.9.3,2.2-.7,2.8ZM58.7,46c-.9.6-2.2.3-2.8-.6-.6-.9-.3-2.2.7-2.8s2.2-.3,2.8.6c.6.9.3,2.2-.7,2.8ZM62,51.3c-.9.6-2.2.3-2.8-.6-.6-.9-.3-2.2.7-2.8.9-.6,2.2-.3,2.8.6.6.9.3,2.2-.7,2.8Z"/>
          </g>
          <rect class="cls-1" x="151.6" y="17.4" width="62.3" height="62.3" rx="3.7" ry="3.7"/>
          <g>
            <rect class="cls-5" x="221.1" y="17.4" width="62.3" height="62.3" rx="3.7" ry="3.7"/>
            <path class="cls-4" d="M250.3,74.5c.2.2.5.4.9.6h0c0-.2.2-.2.3-.2l1,.2c.1,0,.3.1.3.2v.3c.6.2,1.3.4,2,.5v-.2c.2,0,.3-.1.5-.1h1c.1.1.3.2.3.3v.2c.7,0,1.4,0,2.1,0v-.2c0,0,.2-.2.4-.2h1c.1-.1.3,0,.3,0v.2c.8,0,1.5-.2,2.3-.3.7-.1,2.5-1.3,3.6-1.9,1.5-.8,3.7-.4,4.2,1.4,0,0,.2.7.8.7h.7s.1-.3.1-.3c0,0,.2-.2.3-.2h1c.1,0,.3,0,.3.2v.3h1.8s.1-.3.1-.3c0,0,.2-.2.3-.2h1c.1,0,.3,0,.3.2,0,0,.1.3.1.3.5,0,1,0,1.2-.3.7-1.2,1.1-2.7,1.3-4.3h0c0-1.4-.3-2.9-.8-4.7-2.2-7.3.3-9.7.2-13.1,0-.9-2-.5-2.4-.5-5.3.7-9.6-2.9-12.8-2.5-.4,0-1.1.3-1.1,1.3-.2,4.5,2.4,14.6-7.9,15.1-2.8.1-5.2,1.9-5.3,5.4,0,0,0,0,0,0,0,0,0,1.7.3,2.1ZM266.5,59.5c.6,0,1,.5,1,1s-.5,1-1,1-1-.5-1-1,.5-1,1-1ZM267.9,55.4c0,.6-.5,1-1,1s-1-.5-1-1,.5-1,1-1,1,.5,1,1Z"/>
            <path class="cls-4" d="M224.9,40.6c-2.2,8.7,1.7,24.8,1.7,24.8.1.3.5.6.9.5l3.8-.5c.4,0,.6-.4.5-.8,0,0-1.9-7.6-1.8-12.3.7,2.9,1.4,5.7,2.3,9,.3,1,1.1,2,2,1.9,2.3,0,4.7-.4,7.1-.9l-5.9-27.5c-1.9.1-3.5-.6-3.7-1.9s1.3-3.1,3.5-3.6,4.4.3,4.7,1.8-.9,2.6-2.6,3.3l5.9,27.2s0,0,0,0l.2,1.8v.6c.1.4.6.6,1,.5s.8-.5.7-.8l-.7-2.1c2.1-.5,4.1-1.2,5.9-1.9.9-.4,1-1.5.9-2.6-.5-3.3-1-6.2-1.6-9.1,2,4.3,3.4,11.9,3.4,11.9,0,.4.4.6.8.5l3.7-1.1c.4,0,.6-.4.6-.8,0,0-3-16.6-8.7-23.3-.6-.8-3.3-1.1-5.7-1.3-.6-5.9-4.4-10.8-9.5-9.7-5.2,1.1-6.8,6.8-4.7,12.8-2.1,1.1-4.3,2.5-4.6,3.5ZM232.3,45.3l1.4-.3,1.1,5.2-1.4.3-1.1-5.2Z"/>
            <g>
              <path class="cls-4" d="M275.8,34.9l5.7-2.6s-.4-.8-1.1-2l-5.2,2.6.6,2Z"/>
              <path class="cls-4" d="M256.8,31.7l1.2-1.6-4.1-4.1c-1,.9-1.7,1.5-1.7,1.5l4.5,4.2Z"/>
              <path class="cls-4" d="M267.8,24.5c-2.7-.4-4-4.2-4-4.2l-4.1,1.1c-.8.2-2.8,2-4.6,3.5l3.7,3.8-2.5,13.5s4.2,1.3,8.2,1.9c4,.7,8.4.8,8.4.8l1.9-13.5,4.8-2.4c-1.2-2-2.6-4.4-3.2-4.8l-3.5-2.3s-2.5,3.1-5.2,2.6Z"/>
            </g>
          </g>
          <g>
            <rect class="cls-1" x="360.1" y="17.4" width="62.3" height="62.3" rx="3.7" ry="3.7"/>
            <g>
              <g>
                <path class="cls-4" d="M416.7,46.5h-.9s0,0,0,0,0,0,0,0h-21.8v1.7c0,.7-.4,1.4-.9,1.8-.5.5-1.2.8-1.9.8h0c-1.4,0-2.6-1.2-2.6-2.6h0s0-1.7,0-1.7h-21.1s0,0,0,0,0,0,0,0h-1.6c-.3,0-.7.1-.9.4-.2.2-.3.6-.3.9h0s.2,2.3.2,2.3c0,.7.8,1.3,1.5,1.3h49.8c.7,0,1.4-.6,1.5-1.3l.2-2.3c0-.3,0-.7-.3-.9-.2-.2-.5-.4-.9-.4Z"/>
                <path class="cls-4" d="M415.5,33.8c.2,0,.3.1.5.2.3-.4,1-.8,1.6-1-.6-.1-1.2-.3-1.5-.4-.3-.1-.9-.5-1.4-.8.2.6.4,1.4.4,1.9.2,0,.3.1.5.2Z"/>
                <g>
                  <path class="cls-4" d="M405.8,37.4c0-1.7-.4-2.7-.9-3.5h-8.7c-.5.8-.9,1.8-.9,3.5,0,.9.3,1.8.6,2.7.3,1.1.7,2.2.7,3.5s0,1.3-.2,1.9h8.5c-.1-.6-.2-1.2-.2-1.9,0-1.3.3-2.4.7-3.5.3-.9.6-1.8.6-2.7Z"/>
                  <path class="cls-4" d="M404,32.5c-.9-1.1-1.9-2.2-2.1-4.6h.9s0-1.6,0-1.6c0-.1,0-.2-.2-.2h-4.1c-.1,0-.2.1-.2.2v1.6s0,0,0,0h.8c-.2,2.5-1.1,3.6-2.1,4.6-.1.1-.2.2-.3.4h7.5c-.1-.1-.2-.2-.3-.4Z"/>
                </g>
                <path class="cls-4" d="M415.2,34.1c-1-.4-2-.4-3,0-1,.4-1.7,1.2-2.2,2.1l-3.9,9.3h8.6l2.6-6.3c.8-2,0-4.3-2.1-5.2Z"/>
                <path class="cls-4" d="M368.3,51.4l4.1,17.5c.3,1.3,1.7,2.4,3,2.4h31.8c1.3,0,2.7-1.1,3-2.4l4.1-17.5h-45.9ZM379.1,66.9c0,.1-.2.2-.4.2-.3,0-.6-.2-.6-.4l-2.2-9.8c0-.3,0-.5.1-.8.2-.3.4-.4.7-.5,0,0,.2,0,.2,0,.5,0,1,.4,1.1.9,0,0,0,0,0,.1l1.2,9.9c0,.1,0,.3-.1.4ZM385,66.9c-.1.1-.2.2-.4.2h0c-.3,0-.5-.2-.6-.5l-1.2-9.8c0-.3,0-.6.2-.8.2-.2.5-.4.8-.4,0,0,0,0,.1,0,.6,0,1.1.4,1.1,1,0,0,0,0,0,.1v9.9c0,.1,0,.3-.1.4ZM391.8,66.5c0,.3-.3.5-.5.5,0,0,0,0,0,0h0c-.3,0-.6-.2-.6-.5l-.5-9.8s0,0,0,0c0-.6.5-1,1.1-1s0,0,0,0c.3,0,.6.1.8.4.2.2.3.5.3.7l-.5,9.9ZM399.8,56.8l-1.2,9.8c0,.3-.3.5-.6.5h0c-.2,0-.3,0-.4-.2-.1,0-.2-.2-.2-.4v-9.9s0,0,0-.1c0-.6.6-1,1.1-1s0,0,.1,0c.3,0,.6.2.8.4.2.2.3.5.2.8ZM406.9,56.9l-2.2,9.8c0,.3-.3.4-.6.4s0,0,0,0c-.2,0-.3,0-.4-.2,0-.1-.1-.2-.1-.4l1.2-9.9s0,0,0-.1c.1-.5.6-.9,1.1-.9s.2,0,.2,0c.3,0,.6.2.7.5.2.2.2.5.1.8Z"/>
                <path class="cls-4" d="M393.7,27.8h0s-1-.4-2.4-.4h0c-1.4,0-2.4.4-2.4.4h0c-.5.1-.5.3-.5.4l1,20h0s0,0,0,0c0,1,.8,1.9,1.9,1.9h0c.5,0,1-.2,1.3-.5.4-.4.5-.8.5-1.3h0s0,0,0,0l1-20c0,0,0-.2-.5-.4ZM391.3,49.2c-.4,0-.8-.3-.8-.8s.3-.8.8-.8.8.3.8.8-.3.8-.8.8Z"/>
                <path class="cls-4" d="M386,38.2c-.9-.9-2.3-.7-3.8-.5-.5,0-1,.1-1.5.2,0,0,0,0,0,0,0,0,0-.4,0-.8,0,0,.1,0,.2,0,.8,0,1.8-.1,2.6-.8,1-.8,1.7-2.3,1.3-2.9-.1-.1-.3-.2-.5-.2-.8,0-1.8.1-2.6.8-.7.6-1.1,1.5-1.3,2.3-.2-.4-.4-.7-.8-1-.1-.1-.3,0-.4,0-.1.1,0,.3,0,.4.9.7.9,2,.9,2,0,0,0,0,0,0-.6,0-1.2-.1-1.8-.2-1.5-.2-2.8-.5-3.8.5-1.7,1.7-2,4.4-1,7.3h13.5c1-2.9.6-5.6-1-7.3Z"/>
              </g>
              <path class="cls-4" d="M373.7,37.6c-1.3-5.8-2.9-11.3-5.4-10.9-.5,0-.9.3-1.2.8-.6.9-.9,2.5-.9,4.6h0s0,3.8.3,5.4c.3,1.7,1.2,5.6,1.2,5.6h0c.2.8.4,1.6.6,2.4h4.1c-1-3.1-.5-6,1.3-7.9,0,0,0,0,0,0Z"/>
            </g>
          </g>
        </g>
        <path class="cls-4" d="M188.7,43.1c-1.8-3.7-6-4.6-6-4.6,0,0-4.2,1-6,4.6-1.8,3.7-4,10.5-4,10.5h19.9s-2.2-6.8-4-10.5Z"/>
        <path class="cls-4" d="M201.9,45.9c-2.6-4-5.6-7.3-8.9-9.7-5.6-4.1-10.1-4.4-10.3-4.4,0,0,0,0,0,0,0,0,0,0,0,0-.2,0-4.7.3-10.3,4.4-3.3,2.4-6.3,5.7-8.9,9.7-3.3,5-5.9,11.2-7.9,18.3.6,0,1.1-.1,1.5-.6l.5-.5c2.5.3,11.4,1,25.2.3,13.8.7,22.7,0,25.2-.3l.5.5c.4.4.9.7,1.5.6-2-7.2-4.7-13.3-7.9-18.3ZM208.5,62.9h0c-.8-1.2-4-8.1-5.1-10.3l.9-.6c1.5,3.1,2.9,6.7,4.2,10.9ZM197.7,41.5c2.1,2.5,4.3,5.7,6.4,9.8l-.9.6c0,0,0-.1,0-.1l-6-9.7.6-.7ZM192.7,36.8c1.4,1.1,3,2.4,4.6,4.2l-.6.7-6.9-5.9.3-.7c.8.5,1.7,1,2.6,1.7ZM189.5,34.8l-.3.6h-.2s.3-.7.3-.7c0,0,.1,0,.2.1ZM188.8,34.4l-.4.8-5.5-1.3v-1.5c.8,0,3,.5,5.8,1.9ZM182.4,32.5v1.5l-5.5,1.3-.4-.8c2.9-1.4,5.1-1.8,5.8-1.9ZM176,34.7l.3.7h-.2s-.3-.6-.3-.6c0,0,.1,0,.2-.1ZM172.7,36.8c.9-.7,1.8-1.2,2.6-1.7l.3.7-6.9,5.9-.6-.7c1.6-1.8,3.2-3.2,4.6-4.2ZM167.7,41.5l.6.7-6,9.7s0,0,0,.1l-.9-.6c2-4.2,4.2-7.4,6.4-9.8ZM161,51.9l.9.6c-1,2.2-4.2,9.1-5.1,10.3h0c1.3-4.2,2.7-7.8,4.2-10.9ZM182.7,59.8h-14c1.6-5,4.1-10.7,6.3-15.9,2.3-5.1,7.7-6.4,7.7-6.4,0,0,5.4,1.2,7.7,6.4,2.3,5.1,4.7,10.9,6.3,15.9h-14Z"/>
      </g>
    </g>
  </g>
</svg>