<svg xmlns="http://www.w3.org/2000/svg" width="26" height="26" viewBox="0 0 26 26">
  <g id="Layer_2" data-name="Layer 2" transform="translate(0 -0.25)">
    <g id="invisible_box" data-name="invisible box" transform="translate(0 0.25)">
      <rect id="Rectangle_165" data-name="Rectangle 165" width="26" height="26" fill="none"/>
    </g>
    <g id="icons_Q2" data-name="icons Q2" transform="translate(1.081 3.837)">
      <path id="Path_932" data-name="Path 932" d="M24.694,7H3.081A1.081,1.081,0,0,0,2,8.081v16.21a1.081,1.081,0,0,0,1.081,1.081H24.694a1.081,1.081,0,0,0,1.081-1.081V8.081A1.081,1.081,0,0,0,24.694,7ZM23.613,23.21H4.161V12.241l9.456,5.565a.486.486,0,0,0,.54,0l9.456-5.728Zm-9.456-7.889a.486.486,0,0,1-.54,0L4.161,9.161H23.613Z" transform="translate(-2 -7)" fill="#005cab"/>
    </g>
  </g>
</svg>
