<svg xmlns="http://www.w3.org/2000/svg" xmlns:xlink="http://www.w3.org/1999/xlink" width="15.824" height="22" viewBox="0 0 15.824 22">
  <defs>
    <clipPath id="clip-path">
      <rect id="Rectangle_170" data-name="Rectangle 170" width="15.824" height="22" fill="#005cab"/>
    </clipPath>
  </defs>
  <g id="Group_495" data-name="Group 495" transform="translate(0 0)">
    <g id="Group_494" data-name="Group 494" transform="translate(0 0)" clip-path="url(#clip-path)">
      <path id="Path_943" data-name="Path 943" d="M.418,22H15.406a.418.418,0,0,0,.418-.418V.419A.418.418,0,0,0,15.406,0H5.359L5.322,0h0L5.3,0l-.019,0H5.277l-.014,0-.015,0-.011,0-.012,0-.014,0L5.2.032l-.009,0L5.176.043,5.162.049l-.006,0L5.14.063,5.128.07l0,0L5.095.095h0L.153,4.13h0l-.031.028,0,0-.008.008-.006.006L.1,4.188l0,.006L.083,4.2l0,.006L.07,4.221l-.006.01-.006.011-.009.014-.006.013L.038,4.28l-.006.013-.006.015,0,.012,0,.011,0,.015v.006l0,.012v.008a.11.11,0,0,0,0,.019V4.4l0,.011v0c0,.014,0,.028,0,.042H0V21.583A.418.418,0,0,0,.418,22M4.941,1.3V4.036H1.591ZM.836,4.872H5.359a.418.418,0,0,0,.418-.418V.836h9.211V21.165H.836Z" transform="translate(0 0)" fill="#005cab"/>
      <path id="Path_944" data-name="Path 944" d="M14.686,11.346H4.557a.418.418,0,1,0,0,.836H14.686a.418.418,0,0,0,0-.836" transform="translate(-1.709 -4.686)" fill="#005cab"/>
      <path id="Path_945" data-name="Path 945" d="M14.686,15.8H4.557a.418.418,0,1,0,0,.836H14.686a.418.418,0,1,0,0-.836" transform="translate(-1.709 -6.525)" fill="#005cab"/>
      <path id="Path_946" data-name="Path 946" d="M14.686,20.255H4.557a.418.418,0,1,0,0,.836H14.686a.418.418,0,0,0,0-.836" transform="translate(-1.709 -8.365)" fill="#005cab"/>
      <path id="Path_947" data-name="Path 947" d="M14.686,24.709H4.557a.418.418,0,1,0,0,.836H14.686a.418.418,0,1,0,0-.836" transform="translate(-1.709 -10.205)" fill="#005cab"/>
      <path id="Path_948" data-name="Path 948" d="M14.686,29.163H4.557a.418.418,0,1,0,0,.836H14.686a.418.418,0,1,0,0-.836" transform="translate(-1.709 -12.044)" fill="#005cab"/>
    </g>
  </g>
</svg>
