<svg xmlns="http://www.w3.org/2000/svg" width="296" height="44.19" viewBox="0 0 296 44.19">
  <g id="NorthernNorthMart_horiz_reverse" transform="translate(-110.6 -256.7)">
    <g id="Layer_1" transform="translate(110.6 256.7)">
      <g id="Group_12" data-name="Group 12">
        <g id="Group_10" data-name="Group 10" transform="translate(0 11.514)">
          <path id="Path_12" data-name="Path 12" d="M219.6,287.865v-2.23h-2.23V280.5H215.3v7.365Z" transform="translate(-160.996 -279.67)" fill="#fff" fill-rule="evenodd"/>
          <path id="Path_13" data-name="Path 13" d="M205.6,296.2v2.282h2.178v13.381H209.9V296.2Z" transform="translate(-156.327 -287.227)" fill="#fff" fill-rule="evenodd"/>
          <path id="Path_14" data-name="Path 14" d="M219.6,296.2v2.282h-2.23v13.381H215.3V296.2Z" transform="translate(-160.996 -287.227)" fill="#fff" fill-rule="evenodd"/>
          <path id="Path_15" data-name="Path 15" d="M205.6,287.865v-2.23h2.178V280.5H209.9v7.365Z" transform="translate(-156.327 -279.67)" fill="#fff" fill-rule="evenodd"/>
          <rect id="Rectangle_27" data-name="Rectangle 27" width="2.075" height="23.807" transform="translate(59.387 0.83)" fill="#fff"/>
          <path id="Path_16" data-name="Path 16" d="M240.14,302.6v8.973h2.075V301.357a5.679,5.679,0,0,0-5.757-5.757,5.777,5.777,0,0,0-5.757,5.757v10.218h1.971v-9.958a3.948,3.948,0,0,1,3.734-3.994,3.874,3.874,0,0,1,3.734,3.994v.985Z" transform="translate(-168.409 -286.938)" fill="#fff" fill-rule="evenodd"/>
          <path id="Path_17" data-name="Path 17" d="M244.963,304.258H242.94V293.47c-.052-3.371-3.319-5.913-6.068-6.016a6.406,6.406,0,0,0-6.172,3.527V280.4h2.075v6.276a6.744,6.744,0,0,1,4.149-1.141,8.3,8.3,0,0,1,8.091,8.039v10.684Z" transform="translate(-168.409 -279.622)" fill="#fff" fill-rule="evenodd"/>
          <path id="Path_18" data-name="Path 18" d="M314.3,309.072V290.4h2.075l-.052,18.672Z" transform="translate(-208.649 -284.435)" fill="#fff" fill-rule="evenodd"/>
          <path id="Path_19" data-name="Path 19" d="M329.24,302.6v8.973h2.075V301.357a5.679,5.679,0,0,0-5.757-5.757,5.777,5.777,0,0,0-5.757,5.757v10.218h1.971v-9.958a3.948,3.948,0,0,1,3.734-3.994,3.874,3.874,0,0,1,3.734,3.994v.985Z" transform="translate(-211.296 -286.938)" fill="#fff" fill-rule="evenodd"/>
          <path id="Path_20" data-name="Path 20" d="M334.067,309.072h-2.075V298.387a6.617,6.617,0,0,0-6.12-6.12,6.416,6.416,0,0,0-6.172,3.682V290.4h2.23v1.141a6.431,6.431,0,0,1,4.046-1.141,8.135,8.135,0,0,1,8.143,8.039v10.684Z" transform="translate(-211.248 -284.435)" fill="#fff" fill-rule="evenodd"/>
          <rect id="Rectangle_28" data-name="Rectangle 28" width="1.971" height="18.672" transform="translate(39.366 5.965)" fill="#fff"/>
          <path id="Path_21" data-name="Path 21" d="M191.8,297.249v-6.9h1.971v1.867a5.925,5.925,0,0,1,4.46-1.919v2.23a6.612,6.612,0,0,0-6.38,4.72Z" transform="translate(-149.685 -284.386)" fill="#fff" fill-rule="evenodd"/>
          <path id="Path_22" data-name="Path 22" d="M191.752,311.864v-7.78c0-1.452.311-7.469,6.38-7.884v2.282c-1.4-.052-4.357.83-4.46,5.965v7.417h-1.919Z" transform="translate(-149.637 -287.227)" fill="#fff" fill-rule="evenodd"/>
          <path id="Path_23" data-name="Path 23" d="M110.6,278.952h3.579l11.566,14.834V278.9h2.023V300.01l-15.093-19.761v23.288H110.6Z" transform="translate(-110.6 -278.9)" fill="#fff" fill-rule="evenodd"/>
          <path id="Path_24" data-name="Path 24" d="M133.268,303.536h-3.631l-11.514-14.886v14.886H116.1V282.582L131.193,302.4V278.9l2.075.052Z" transform="translate(-113.247 -278.9)" fill="#fff" fill-rule="evenodd"/>
          <rect id="Rectangle_29" data-name="Rectangle 29" width="1.971" height="18.672" transform="translate(95.797 5.965)" fill="#fff"/>
          <path id="Path_25" data-name="Path 25" d="M300.6,297.3v-7.054h1.971v1.867a5.925,5.925,0,0,1,4.461-1.919v2.23a6.773,6.773,0,0,0-6.38,4.823Z" transform="translate(-202.054 -284.338)" fill="#fff" fill-rule="evenodd"/>
          <path id="Path_26" data-name="Path 26" d="M300.552,311.864v-7.78c0-1.452.311-7.469,6.38-7.884v2.282c-1.4-.052-4.357.83-4.46,5.965v7.417h-1.919Z" transform="translate(-202.006 -287.227)" fill="#fff" fill-rule="evenodd"/>
          <path id="Path_27" data-name="Path 27" d="M154.8,302.194a6.794,6.794,0,1,1,6.794,6.794A6.818,6.818,0,0,1,154.8,302.194Zm2.126,0a4.668,4.668,0,1,1,4.668,4.668A4.682,4.682,0,0,1,156.927,302.194Z" transform="translate(-131.875 -286.842)" fill="#fff" fill-rule="evenodd"/>
          <path id="Path_28" data-name="Path 28" d="M149,299.4a9.8,9.8,0,1,1,9.8,9.8A9.828,9.828,0,0,1,149,299.4Zm2.23,0a7.521,7.521,0,1,1,7.521,7.521A7.526,7.526,0,0,1,151.23,299.4Z" transform="translate(-129.083 -284.05)" fill="#fff" fill-rule="evenodd"/>
          <path id="Path_29" data-name="Path 29" d="M263.7,301.468a6.8,6.8,0,0,1,6.691-6.068,6.685,6.685,0,0,1,6.743,6.068Zm2.749-1.919a4.642,4.642,0,0,1,3.942-2.127,4.206,4.206,0,0,1,3.89,2.127Z" transform="translate(-184.293 -286.842)" fill="#fff" fill-rule="evenodd"/>
          <path id="Path_30" data-name="Path 30" d="M273.212,302.978a6.544,6.544,0,0,1-5.809,3.268,6.762,6.762,0,0,1-6.743-6.743h14.367a7.521,7.521,0,1,0-7.572,7.521c4.1,0,5.394-1.5,6.639-3.994h2.438a9.479,9.479,0,0,1-9.128,6.224c-4.1,0-9.8-4.357-9.8-9.751a9.8,9.8,0,0,1,19.605,0c0,5.394-.1,1.4-.208,2.075H263.409a4.377,4.377,0,0,0,3.994,2.593,4.107,4.107,0,0,0,3.008-1.141h2.749Z" transform="translate(-181.357 -284.098)" fill="#fff" fill-rule="evenodd"/>
        </g>
        <g id="Group_11" data-name="Group 11" transform="translate(145.505)">
          <path id="Path_31" data-name="Path 31" d="M611.554,297.885H536.4V296.9h75.154v.985Z" transform="translate(-461.059 -276.05)" fill="#fff"/>
          <path id="Path_32" data-name="Path 32" d="M611.506,326.037H536.3V325h75.206v1.037Z" transform="translate(-461.011 -289.575)" fill="#fff"/>
          <path id="Path_33" data-name="Path 33" d="M667.438,304.13H662.51v8.454h-5.238c0-4.2.1-5.55,0-8.454H652.5V301.9h14.938Z" transform="translate(-516.942 -278.457)" fill="#fff" fill-rule="evenodd"/>
          <path id="Path_34" data-name="Path 34" d="M544.084,301.9s2.386,4.512,3.631,6.691c.156.052,2.645-4.979,3.475-6.691h8.039v10.684h-4.823s.363-5.5.415-8.195c0,0-.1-.1-.156-.052-1.5,2.386-4.72,8.143-4.72,8.143h-4.616c-1.608-2.7-2.853-5.446-4.46-8.091h-.1c0,2.7.363,5.5.467,8.247H536.2V301.952h7.884Z" transform="translate(-460.963 -278.457)" fill="#fff" fill-rule="evenodd"/>
          <path id="Path_35" data-name="Path 35" d="M612.442,301.8c2.075,0,4.149.1,4.979,2.075.415,1.3.1,3.164-.622,3.631a9.427,9.427,0,0,1-2.749.83c0,.1,0,.156.1.156.933-.052,2.541.207,3.164,1.3a8.676,8.676,0,0,1,.1,2.7h-5.238c-.156-.882.363-2.126-.674-2.593-1.089-.622-3.268-.207-5.031-.259h-.052v2.853h-5.29V301.8Zm-17.427.052s3.942,7.158,5.809,10.684H595.9l-1.037-1.763h-6.794l-.882,1.763H582.1c1.815-3.475,5.6-10.684,5.6-10.684Zm-1.037,6.9H589l2.386-4.668Zm16.8-4.512c.934.1,1.348.311,1.556.622a2.717,2.717,0,0,1,0,1.919c-.311.415-1.245.415-1.971.467h-3.89v-3.008a23.581,23.581,0,0,1,4.3,0Z" transform="translate(-483.056 -278.408)" fill="#fff" fill-rule="evenodd"/>
          <path id="Path_36" data-name="Path 36" d="M391.378,300.734v-.156c-.571-1.4,0-2.645.467-3.89.1-.259.259-.571.363-.83,5.446-11.411,13.8-21.732,21.836-31.69h0a2.988,2.988,0,0,1,2.386,1.556,2.291,2.291,0,0,1,0,1.66.657.657,0,0,1-.052.311l-5.6,17.634a1.319,1.319,0,0,1-.1.363.737.737,0,0,1-.1.311h.052c0,.052,1.089-1.452,1.089-1.452,7.157-9.906,14.574-20.176,24.792-27.022a6.106,6.106,0,0,0,.57-.259,10.846,10.846,0,0,1,1.556-.571v.156c-11.1,9.958-21.524,22.873-31.69,39.47h-.156c-.674-.207-1.815-1.3-1.815-1.867a4.476,4.476,0,0,1,.208-1.452c.156-.519,3.008-10.477,4.512-15.56.519-1.867,1.089-3.682,1.608-5.55a273.569,273.569,0,0,0-19.917,28.838l-.1.156h0Z" transform="translate(-391.139 -256.7)" fill="#fff"/>
          <path id="Path_37" data-name="Path 37" d="M496.613,299.176a1.573,1.573,0,0,1-1.3-.622,2.894,2.894,0,0,1-.726-1.037,1.972,1.972,0,0,1-.156-.519,4.187,4.187,0,0,1,.156-.985c1.141-4.616,4.253-8.61,7.261-12.4l.778-.985c-6.483,3.838-11.359,9.647-15.456,14.782a2.248,2.248,0,0,0-.259.052c-.622,0-1.4-.882-1.66-1.193a1.136,1.136,0,0,1,0-.83,13.484,13.484,0,0,1,.882-1.5,14.461,14.461,0,0,0,.83-1.452c-.934.674-1.763,1.4-2.593,2.127a26.228,26.228,0,0,1-3.994,3.06,2.565,2.565,0,0,1-2.075-1.66c-.1-1.193.1-1.452,1.556-4.357a115.86,115.86,0,0,1,10.373-14.886s0-.156-.207-.1c-.156,0-6.587.415-9.958.571-1.556.052-3.112.156-4.668.207v-.156a122.928,122.928,0,0,1,16.96-2.8l4.1-4.512h.363a3.555,3.555,0,0,1,2.7,1.193h0v.1c-.311.363-.622.674-.934,1.037a9.634,9.634,0,0,0-1.5,1.815,8.849,8.849,0,0,0,1.66,0,11.684,11.684,0,0,1,1.349,0h.052v.207l-2.075,2.023-3.319.259a102.383,102.383,0,0,0-12.915,17.842h.156c1.193-.934,2.541-1.867,3.786-2.749,1.3-.882,2.645-1.867,3.942-2.8A165.969,165.969,0,0,1,508.491,266.5h.311a2.819,2.819,0,0,1,1.815.934,3.922,3.922,0,0,0,.726.571h0v.207a140.308,140.308,0,0,0-15.767,17.946c.519-.415,1.037-.83,1.5-1.245,2.438-2.023,4.927-4.149,7.936-5.031h.363c1.037,0,1.66.83,2.178,1.66a1.77,1.77,0,0,1,.259.571,1.615,1.615,0,0,1-.208.311c-.985,1.245-1.971,2.386-2.956,3.527a45.864,45.864,0,0,0-4.512,5.653l-.415.674a19.807,19.807,0,0,0-2.282,4.253h.207c.622-.467,1.3-.985,1.919-1.452,1.763-1.4,3.371-2.7,5.653-2.853h.1v.415a50.9,50.9,0,0,0-4.409,3.579,48.337,48.337,0,0,1-3.838,3.216c-.156,0-.259.052-.415.052h0Z" transform="translate(-431.697 -261.417)" fill="#fff"/>
          <path id="Path_38" data-name="Path 38" d="M461.817,309.716a2.011,2.011,0,0,1-1.193-.467,1.6,1.6,0,0,1-.57-1.608c1.66-2.8,3.423-5.653,5.135-8.4.985-1.608,2.023-3.216,3.008-4.824-.1-.156-.415,0-.674.1-.207.1-1.66.985-1.66.985v-.156c.156-1.66,1.867-2.386,3.216-2.9.207-.1.467-.156.622-.259a1.886,1.886,0,0,1,1.763,1.193,2.449,2.449,0,0,1-.1.778c-.1.156-2.282,3.475-2.282,3.475h.156l.415-.467c2.49-2.386,5.29-5.083,8.61-5.965h.311a2.163,2.163,0,0,1,1.4.311l.1.1h-.156c-2.749,1.089-5.083,3.164-7.469,5.394a106.378,106.378,0,0,0-8.558,10.321c-.622.778-1.193,1.608-1.815,2.386-.156,0-.259.052-.363.052h0Z" transform="translate(-424.286 -273.306)" fill="#fff"/>
          <path id="Path_39" data-name="Path 39" d="M536.4,296.5" transform="translate(-461.059 -275.857)" fill="#fff" stroke="#231f20" stroke-miterlimit="3.9" stroke-width="0.7" fill-rule="evenodd"/>
          <path id="Path_40" data-name="Path 40" d="M441.879,310.942a2.179,2.179,0,0,1-1.089-.311c-1.608-1.089-2.386-2.127-2.49-3.216.1-3.527,1.608-7.209,4.72-11.255a13.566,13.566,0,0,1,5.653-4.46h0a2.878,2.878,0,0,1,2.075,1.193h.1a3.087,3.087,0,0,1,1.815-.83c.674,0,.519.1.674.207a1.4,1.4,0,0,1,.415.363,9.949,9.949,0,0,1,.726.778,1.52,1.52,0,0,1,.207,1.452,31.341,31.341,0,0,1-9.647,14.471c-.467.415-2.127,1.66-3.164,1.66h0Zm5.757-14.315-2.023,2.438-.207.363c-1.815,2.749-3.682,5.6-4.1,9.025,0,.1.1.207.415.207h.207a17.464,17.464,0,0,0,4.875-4.3c.311-.363.622-.726.985-1.089,2.178-2.9,3.994-5.55,4.668-8.713,0,0-.052-.156-.311-.052-.934.207-2.075,1.815-2.8,2.956-.156.259-.311.467-.467.726a3.474,3.474,0,0,1-.363.934c-.311.57-.571,1.141-.207,1.712h0v.1a.381.381,0,0,1-.311.1h-.311a1.447,1.447,0,0,1-.83-1.712,4.885,4.885,0,0,1,.622-2.075,3.573,3.573,0,0,0,.207-.519h0Z" transform="translate(-413.84 -273.547)" fill="#fff"/>
        </g>
      </g>
    </g>
  </g>
</svg>
