<svg id="Facebook_reverse" xmlns="http://www.w3.org/2000/svg" width="28" height="28.056" viewBox="0 0 28 28.056">
  <path id="Path_6" data-name="Path 6" d="M31.338,4.956H6.462A1.559,1.559,0,0,0,4.9,6.518V31.394a1.559,1.559,0,0,0,1.562,1.562H19.848V22.135H16.223V17.9h3.625V14.773c0-3.625,2.231-5.578,5.41-5.578s2.845.112,3.235.167v3.793H26.263c-1.729,0-2.064.837-2.064,2.064V17.9h4.183l-.558,4.239H24.2V32.956h7.139A1.559,1.559,0,0,0,32.9,31.394V6.462A1.559,1.559,0,0,0,31.338,4.9" transform="translate(-4.9 -4.9)" fill="#fff"/>
</svg>
