<svg id="Instagram_reverse" xmlns="http://www.w3.org/2000/svg" width="28" height="28" viewBox="0 0 28 28">
  <path id="Path_7" data-name="Path 7" d="M29.652,16.816H27.244a8.863,8.863,0,0,1,.28,2.128,8.624,8.624,0,0,1-17.248,0c0-4.76.112-1.456.28-2.128H8.148V28.632A1.063,1.063,0,0,0,9.212,29.7h19.32A1.063,1.063,0,0,0,29.6,28.632V16.816Zm0-7.5a1.063,1.063,0,0,0-1.064-1.064H25.34a1.063,1.063,0,0,0-1.064,1.064V12.56a1.063,1.063,0,0,0,1.064,1.064h3.248a1.063,1.063,0,0,0,1.064-1.064ZM18.9,13.624A5.376,5.376,0,1,0,24.276,19,5.377,5.377,0,0,0,18.9,13.624m10.752,19.32H8.148A3.25,3.25,0,0,1,4.9,29.7V8.248A3.25,3.25,0,0,1,8.148,5h21.5A3.25,3.25,0,0,1,32.9,8.248v21.5A3.25,3.25,0,0,1,29.652,33" transform="translate(-4.9 -5)" fill="#fff" fill-rule="evenodd"/>
</svg>
