<svg width="24" height="19" viewBox="0 0 24 19" fill="none" xmlns="http://www.w3.org/2000/svg">
<g clip-path="url(#clip0_2_3)">
<path d="M22.8 0.399988H1.2C0.6 0.399988 0 0.799988 0 1.39999V17.6C0 18.2 0.5 18.7 1.1 18.7H22.7C23.3 18.7 23.8 18.2 23.8 17.6V1.39999C23.8 0.799988 23.3 0.299988 22.7 0.299988L22.8 0.399988ZM21.7 16.6H2.3V5.59999L11.8 11.2C12 11.3 12.2 11.3 12.3 11.2L21.8 5.49999V16.6H21.7ZM12.2 8.69999C12 8.79999 11.8 8.79999 11.7 8.69999L2.3 2.49999H21.8L12.3 8.69999H12.2Z" fill="#005CAB"/>
</g>
<defs>
<clipPath id="clip0_2_3">
<rect width="24" height="19" fill="white"/>
</clipPath>
</defs>
</svg>
