<svg width="20" height="24" viewBox="0 0 20 24" fill="none" xmlns="http://www.w3.org/2000/svg">
<g clip-path="url(#clip0_2_8)">
<path d="M19.1 1.1C18.7 0.7 18.2 0.5 17.6 0.5H7.19999C6.89999 0.5 6.69999 0.6 6.49999 0.8L0.599988 6.9C0.399988 7.1 0.299988 7.3 0.299988 7.6V21.6C0.299988 22.7 1.19999 23.6 2.29999 23.6H17.5C18.7 23.6 19.6 22.7 19.6 21.5V2.6C19.6 2 19.4 1.5 19 1.1H19.1ZM6.69999 3.5V6.5H3.79999L6.69999 3.4V3.5ZM17.6 21.4H2.39999V8.2H8.49999V2.4H17.7V21.3L17.6 21.4Z" fill="#005CAB"/>
<path d="M15.6 11H4.5V13.1H15.6V11Z" fill="#005CAB"/>
<path d="M15.6 14.4H4.5V16.5H15.6V14.4Z" fill="#005CAB"/>
<path d="M15.6 17.7H4.5V19.8H15.6V17.7Z" fill="#005CAB"/>
</g>
<defs>
<clipPath id="clip0_2_8">
<rect width="20" height="24" fill="white"/>
</clipPath>
</defs>
</svg>
