<svg width="21" height="21" viewBox="0 0 21 21" fill="none" xmlns="http://www.w3.org/2000/svg">
<g clip-path="url(#clip0_2_15)">
<path d="M14.2 12.7C15.4 11.1 16 9.09999 15.7 7.09999C15.2 3.39999 12.3 0.599987 8.59999 0.299987C4.39999 -0.200013 0.599994 2.89999 0.0999938 7.19999C-0.300006 11.5 2.79999 15.2 6.99999 15.7C8.99999 15.9 11 15.4 12.7 14.2L19.1 20.6C19.5 21 20.1 21 20.5 20.6C20.9 20.2 20.9 19.6 20.5 19.2L14.1 12.8L14.2 12.7ZM8.99999 13.6C5.89999 14.1 2.99999 12 2.49999 8.89999C2.39999 8.29999 2.49999 7.59999 2.49999 6.99999C2.89999 4.59999 4.69999 2.79999 7.09999 2.39999C10.1 1.79999 13.1 3.79999 13.6 6.89999C13.7 7.59999 13.7 8.29999 13.6 8.89999C13.2 11.3 11.3 13.1 8.99999 13.5V13.6Z" fill="#005CAB"/>
</g>
<defs>
<clipPath id="clip0_2_15">
<rect width="21" height="21" fill="white"/>
</clipPath>
</defs>
</svg>
