<svg width="18" height="23" viewBox="0 0 18 23" fill="none" xmlns="http://www.w3.org/2000/svg">
<g clip-path="url(#clip0_2_20)">
<path d="M8.89999 6.5C9.69999 6.5 10.4 7.2 10.4 8C10.4 8.8 9.69999 9.5 8.89999 9.5C8.09999 9.5 7.39999 8.8 7.39999 8C7.39999 7.2 7.99999 6.5 8.79999 6.5C8.79999 6.5 8.79999 6.5 8.89999 6.5ZM8.89999 4.5C6.99999 4.5 5.39999 6.1 5.39999 8C5.39999 9.9 6.99999 11.5 8.89999 11.5C10.8 11.5 12.4 9.9 12.4 8C12.4 6.1 10.8 4.5 8.89999 4.5Z" fill="#005CAB"/>
<path d="M8.9 2.5C12.6 2.5 15.4 5.5 15.4 9.5C15.4 13.5 11.1 17.8 8.9 20C6.7 17.8 2.4 13.2 2.4 9.5C2.3 5.8 5.2 2.7 8.9 2.5ZM8.9 0.5C4 0.5 0.5 4.5 0.5 9.4C0.5 14.3 6.2 20 8.3 22C8.7 22.4 9.3 22.4 9.6 22C11.6 20 17.4 14.4 17.4 9.4C17.4 4.4 13.9 0.5 8.9 0.5Z" fill="#005CAB"/>
</g>
<defs>
<clipPath id="clip0_2_20">
<rect width="18" height="23" fill="white"/>
</clipPath>
</defs>
</svg>
