<svg id="LInkedIn_reverse" xmlns="http://www.w3.org/2000/svg" width="27.995" height="28.107" viewBox="0 0 27.995 28.107">
  <g id="Group_7" data-name="Group 7">
    <path id="Path_8" data-name="Path 8" d="M5.449,14.413h5.835V33.151H5.449ZM8.366,5.1A3.366,3.366,0,1,1,5,8.466,3.376,3.376,0,0,1,8.366,5.1" transform="translate(-5 -5.1)" fill="#fff"/>
    <path id="Path_9" data-name="Path 9" d="M22.612,21.349h5.554V23.93h.056a6.173,6.173,0,0,1,5.5-3.03c5.891,0,6.957,3.871,6.957,8.92V40.087H34.843V31c0-2.188,0-4.937-3.03-4.937s-3.478,2.356-3.478,4.825v9.257H22.5V21.349Z" transform="translate(-12.682 -12.036)" fill="#fff"/>
  </g>
</svg>
