<?xml version="1.0" encoding="UTF-8"?>
<svg xmlns="http://www.w3.org/2000/svg" version="1.1" viewBox="0 0 180 106">
  <defs>
    <style>
      .cls-1, .cls-2, .cls-3 {
        fill: #fff;
      }

      .cls-1, .cls-3 {
        fill-rule: evenodd;
      }

      .cls-3 {
        stroke: #231f20;
        stroke-miterlimit: 3.9;
        stroke-width: .4px;
      }
    </style>
  </defs>
  <!-- Generator: Adobe Illustrator 28.7.1, SVG Export Plug-In . SVG Version: 1.2.0 Build 142)  -->
  <g>
    <g id="Layer_2">
      <g>
        <g id="Northmart_Logo">
          <polygon class="cls-2" points="176.6 77.9 90.2 77.9 90.2 76.7 176.6 76.7 176.6 77.9 176.6 77.9"/>
          <polygon class="cls-2" points="176.6 94.7 90.1 94.7 90.1 93.5 176.6 93.5 176.6 94.7 176.6 94.7"/>
          <path class="cls-1" d="M176.6,82.3h-5.7c0,3.8,0,6.4,0,9.7h-6c0-4.9.1-6.4,0-9.7h-5.5v-2.6h17.2v2.6Z"/>
          <path class="cls-1" d="M99.1,79.7s2.7,5.2,4.2,7.7c.2,0,3.1-5.7,4-7.7h9.3v12.3h-5.6s.4-6.3.5-9.4c0,0,0-.1-.2,0-1.7,2.7-5.4,9.4-5.4,9.4h-5.3c-1.8-3.1-3.3-6.3-5.1-9.3h-.1c0,3.1.4,6.3.5,9.5h-5.8v-12.3h9.1Z"/>
          <path class="cls-1" d="M152.4,79.7c2.4,0,4.8.1,5.7,2.4.5,1.5.1,3.6-.7,4.2-.9.5-2.1.7-3.2.9,0,.1,0,.2.1.2,1.1,0,2.9.2,3.6,1.5.3.5,0,2.1.1,3.1h-6c-.2-1,.4-2.5-.8-3-1.2-.7-3.7-.2-5.8-.3h0v3.3h-6.1v-12.3h13ZM132.3,79.7s4.5,8.3,6.7,12.3h-5.7s-1.2-2-1.2-2c-2.6,0-5.2,0-7.8,0l-1,2h-5.8c2.1-4,6.5-12.3,6.5-12.3h8.4ZM131.1,87.7h-5.7l2.7-5.4,3,5.4ZM150.4,82.4c1.1.1,1.5.3,1.8.7.2.4.3,1.8,0,2.2-.3.5-1.4.5-2.3.5h-4.5v-3.5c2.1-.1,3.6-.2,5,0Z"/>
          <path class="cls-2" d="M3.7,103.4v-.2c-.6-1.6,0-3.1.6-4.5.1-.3.3-.7.4-1,6.3-13.2,15.9-25,25.1-36.5h0s0,0,0,0c1.2.1,2.2.8,2.8,1.8.3.6.2,1.3,0,1.9,0,.1,0,.2,0,.3l-6.5,20.3c0,.1,0,.3-.1.4,0,.1,0,.2-.1.3h0c0,0,1.3-1.7,1.3-1.7,8.3-11.4,16.8-23.2,28.5-31.1.2-.1.5-.2.7-.3.6-.2,1.1-.5,1.8-.7v.2c-12.8,11.4-24.8,26.3-36.5,45.4h0c0,0-.2,0-.2,0-.8-.2-2.1-1.5-2.1-2.1s0-1.1.2-1.7c.2-.6,3.5-12.1,5.2-17.9.6-2.1,1.3-4.2,1.9-6.4-9.4,12-16.9,22.9-22.9,33.2v.2h-.1Z"/>
          <path class="cls-2" d="M78.1,96.2c-.6,0-1.1-.3-1.5-.7-.4-.3-.7-.7-.9-1.2,0-.2-.1-.4-.2-.6,0-.2,0-.8.2-1.1,1.3-5.3,4.9-9.9,8.3-14.3l.9-1.2c-7.4,4.4-13.1,11.1-17.8,17-.1,0-.2,0-.3,0-.7,0-1.6-1-1.9-1.4-.1-.2-.1-.6,0-.9.1-.3.6-1.2,1-1.7.4-.6.7-1.1,1-1.7-1.1.8-2,1.6-3,2.5-1.4,1.2-2.9,2.5-4.6,3.5-1.1-.2-2-.9-2.4-1.9-.1-1.4,0-1.7,1.8-5,1.7-3.3,7.5-11.8,11.9-17.2,0,0,0-.2-.2-.1-.2,0-7.6.5-11.5.6-1.8,0-3.6.2-5.4.3v-.2c5.4-1.2,12.5-2.7,19.5-3.2l4.7-5.2c.2,0,.3,0,.4,0,1.2,0,2.4.5,3.1,1.4h0c0,0,0,.1,0,.1-.3.4-.7.8-1.1,1.2-.6.7-1.3,1.4-1.8,2.1.5,0,1.2,0,1.9,0,.5,0,1.1,0,1.5,0h0v.2l-2.4,2.4-3.8.3c-5.2,5.6-10,12.3-14.9,20.5h.2c1.4-1.1,2.9-2.1,4.4-3.2,1.5-1,3.1-2.1,4.5-3.2,5.7-7.9,12.7-17.2,21.6-25.8.2,0,.3,0,.4,0,.8,0,1.5.5,2.1,1.1.3.2.5.5.8.7h0v.3c-6.2,5.9-12.7,13.2-18.2,20.7.6-.5,1.2-1,1.7-1.4,2.8-2.3,5.7-4.8,9.2-5.8.2,0,.3,0,.4,0,1.2,0,1.9,1,2.5,1.9.3.4.3.6.3.7s-.2.4-.2.4c-1.1,1.4-2.3,2.8-3.4,4-1.9,2.1-3.7,4.2-5.2,6.5l-.5.8c-1,1.6-2,3.2-2.7,4.9h0s.3,0,.3,0c.7-.5,1.5-1.1,2.2-1.7,2-1.6,3.9-3.1,6.5-3.3h0s0,.5,0,.5c-1.9,1.3-3.5,2.7-5.1,4.1-1.4,1.2-2.8,2.5-4.4,3.7-.2,0-.3,0-.5,0h0Z"/>
          <path class="cls-2" d="M46.6,94.6c-.5,0-.9-.3-1.4-.6-.6-.5-.9-1.2-.7-1.8,1.9-3.2,4-6.5,5.9-9.6,1.2-1.9,2.3-3.7,3.4-5.6-.1-.2-.5,0-.8,0-.3.1-1.9,1.1-1.9,1.1v-.2c.2-1.9,2.1-2.7,3.7-3.4.3-.1.5-.2.7-.3.8,0,1.7.5,2,1.4,0,0,0,.7-.1.9-.1.2-2.6,4-2.6,4h.2l.5-.5c2.9-2.7,6.1-5.9,9.9-6.9h.3c.6,0,1.1,0,1.6.4h.1c0,.1-.2.2-.2.2-3.1,1.2-5.9,3.6-8.6,6.1-3.5,3.5-6.7,7.7-9.8,11.9-.7.9-1.4,1.8-2.1,2.7-.2,0-.3,0-.4,0h0Z"/>
          <path class="cls-3" d="M90.1,76.5"/>
          <path class="cls-2" d="M35.7,95.8c-.4,0-.8-.1-1.2-.4-1.8-1.3-2.8-2.5-2.8-3.7,0-4.1,1.9-8.3,5.4-13,2.3-2.7,4.4-4.4,6.5-5.1h0c1,0,1.7.6,2.4,1.3h0c.6-.5,1.3-.9,2.1-.9s.6.1.8.2c.2.1.3.3.5.4.3.3.6.6.8.9.3.4.5.9.2,1.6-1.8,6.1-5.9,12.2-11.1,16.6-.5.5-2.4,1.9-3.7,1.9h0ZM42.3,79.3l-2.4,2.8-.3.4c-2.1,3.2-4.2,6.5-4.7,10.4,0,0,0,.2.5.2s.2,0,.2,0c2.3-1.2,3.8-3,5.6-4.9.4-.4.7-.8,1.1-1.3,2.5-3.3,4.6-6.4,5.4-10.1,0,0,0-.2-.3,0-1.1.3-2.4,2.1-3.2,3.4-.2.3-.3.6-.5.8,0,.3-.3.7-.4,1.1-.3.7-.7,1.3-.3,2h0c0,0,0,.1,0,.1-.1.1-.2.1-.4.1h-.2s0,0,0,0c-.8-.5-1-1-1-2,0-1,.4-1.7.7-2.4,0-.2.2-.4.3-.6h0Z"/>
        </g>
        <g id="Northern_Logo">
          <polygon class="cls-1" points="86.5 12.8 86.5 10 83.7 10 83.7 3.6 81.1 3.6 81.1 12.8 86.5 12.8"/>
          <polygon class="cls-1" points="74.9 13.8 74.9 16.6 77.6 16.6 77.6 33.3 80.2 33.3 80.2 13.8 74.9 13.8"/>
          <polygon class="cls-1" points="86.5 13.8 86.5 16.6 83.7 16.6 83.7 33.3 81.1 33.3 81.1 13.8 86.5 13.8"/>
          <polygon class="cls-1" points="74.8 12.8 74.8 10 77.6 10 77.6 3.6 80.2 3.6 80.2 12.8 74.8 12.8"/>
          <rect class="cls-2" x="87.5" y="3.6" width="2.6" height="29.7"/>
          <path class="cls-1" d="M102.9,22.1v11.2h2.6v-12.8c0-4.1-3.3-7.2-7.2-7.2s-7.2,3.2-7.2,7.2v12.8h2.5v-12.4c0-2.6,2.1-5,4.7-5,2.8,0,4.7,2.4,4.7,5v1.2Z"/>
          <path class="cls-1" d="M108.9,33.3h-2.5v-13.5c0-4.2-4.1-7.4-7.6-7.5-3.3-.1-6,1.3-7.7,4.4V3.6h2.6s0,5.6,0,7.8c1.4-1,3.2-1.4,5.1-1.4,5.1,0,10.1,4.5,10.1,10v13.3Z"/>
          <polygon class="cls-1" points="145.2 33.3 145.2 10 147.8 10 147.8 33.3 145.2 33.3"/>
          <path class="cls-1" d="M160.6,22.1v11.2h2.6v-12.8c0-4.1-3.3-7.2-7.2-7.2s-7.2,3.2-7.2,7.2v12.8h2.5v-12.4c0-2.6,2.1-5,4.7-5,2.8,0,4.7,2.4,4.7,5v1.2Z"/>
          <path class="cls-1" d="M166.7,33.3h-2.6v-13.3c0-4.2-4.2-7.6-7.6-7.6s-6.2,1.5-7.7,4.6v-6.9h2.8s0,.1,0,1.4c1.4-1,3.1-1.4,5-1.4,5.5,0,10.2,4.5,10.2,10v13.3Z"/>
          <rect class="cls-2" x="62.5" y="10" width="2.5" height="23.3"/>
          <path class="cls-1" d="M65.9,18.6c0-3.8,0-8.6,0-8.6h2.4s0,1.2,0,2.3c2-2.5,5.5-2.4,5.5-2.4v2.8c-2.5,0-6.3,1.2-8,5.9Z"/>
          <path class="cls-1" d="M65.9,33.3v-9.7c0-1.8.4-9.3,8-9.8v2.8c-1.7,0-5.5,1-5.5,7.5v9.2h-2.4Z"/>
          <polygon class="cls-1" points="13.3 2.6 17.8 2.6 32.3 21.2 32.3 2.6 34.8 2.6 34.8 28.9 15.9 4.3 15.9 33.3 13.3 33.3 13.3 2.6"/>
          <polygon class="cls-1" points="38.3 33.3 33.8 33.3 19.4 14.7 19.4 33.3 16.9 33.3 16.9 7.2 35.8 31.9 35.8 2.6 38.3 2.6 38.3 33.3"/>
          <rect class="cls-2" x="132.9" y="10" width="2.5" height="23.3"/>
          <path class="cls-1" d="M136.3,18.8c0-3.8,0-8.8,0-8.8h2.4s0,1.2,0,2.3c2-2.5,5.5-2.4,5.5-2.4v2.8c-2.4.2-6.4,1.2-8,6Z"/>
          <path class="cls-1" d="M136.3,33.3v-9.7c0-1.8.4-9.3,8-9.8v2.8c-1.7,0-5.5,1-5.5,7.5v9.2h-2.4Z"/>
          <path class="cls-1" d="M41.9,21.8c0-4.7,3.8-8.5,8.5-8.5s8.5,3.8,8.5,8.5-3.8,8.5-8.5,8.5-8.5-3.8-8.5-8.5ZM44.6,21.7c0-3.2,2.6-5.8,5.8-5.8s5.8,2.6,5.8,5.8-2.6,5.8-5.8,5.8-5.8-2.6-5.8-5.8Z"/>
          <path class="cls-1" d="M38.2,21.7c0-6.7,5.5-12.2,12.2-12.2s12.2,5.5,12.2,12.2-5.5,12.2-12.2,12.2-12.2-5.5-12.2-12.2ZM41,21.8c0-5.2,4.2-9.4,9.4-9.4s9.4,4.2,9.4,9.4-4.2,9.4-9.4,9.4-9.4-4.2-9.4-9.4Z"/>
          <path class="cls-1" d="M112.4,20.8c.2-3.9,3.8-7.6,8.3-7.6s8,3.3,8.4,7.6h-16.8ZM115.9,18.4c1-1.6,2.8-2.7,4.9-2.7s4.1,1,4.9,2.7h-9.8Z"/>
          <path class="cls-1" d="M128,26.1c-1.3,2.5-4.1,4.1-7.2,4.1-4.6,0-8.4-3.8-8.4-8.4,1.5,0,17.9,0,17.9,0,0-5.3-4.3-9.4-9.5-9.4s-9.4,4.2-9.4,9.4,4.2,9.4,9.4,9.4,6.7-1.9,8.3-5h3.1c-1.6,4.7-6.3,7.7-11.4,7.7s-12.2-5.4-12.2-12.1,5.5-12.2,12.2-12.2,12.2,5.5,12.2,12.2,0,1.8-.3,2.6h-16.9s1.2,3.1,5,3.2c1.4,0,2.8-.4,3.8-1.4h3.4Z"/>
        </g>
      </g>
    </g>
  </g>
</svg>