<svg xmlns="http://www.w3.org/2000/svg" width="546" height="81.6" viewBox="0 0 546 81.6">
  <g id="NorthernNorthMart-rev-horiztal" transform="translate(-3.4 -5.5)">
    <g id="Layer_1">
      <g id="Group_501" data-name="Group 501">
        <g id="Group_499" data-name="Group 499">
          <path id="Path_949" data-name="Path 949" d="M111.5,42V37.8h-4.1V28.4h-3.9V42Z" fill="#fff" fill-rule="evenodd"/>
          <path id="Path_950" data-name="Path 950" d="M94.3,43.4v4.2h4V72.3h3.9V43.4Z" fill="#fff" fill-rule="evenodd"/>
          <path id="Path_951" data-name="Path 951" d="M111.5,43.4v4.2h-4.1V72.3h-3.9V43.4Z" fill="#fff" fill-rule="evenodd"/>
          <path id="Path_952" data-name="Path 952" d="M94.3,42V37.8h4V28.4h3.9V42Z" fill="#fff" fill-rule="evenodd"/>
          <rect id="Rectangle_175" data-name="Rectangle 175" width="3.8" height="43.9" transform="translate(113 28.4)" fill="#fff"/>
          <path id="Path_953" data-name="Path 953" d="M135.7,55.8V72.4h3.8V53.5a10.542,10.542,0,0,0-10.6-10.6,10.67,10.67,0,0,0-10.6,10.6V72.4H122V54.1c0-3.8,3.1-7.3,6.9-7.3a7.065,7.065,0,0,1,6.9,7.3v1.8Z" fill="#fff" fill-rule="evenodd"/>
          <path id="Path_954" data-name="Path 954" d="M144.6,72.3h-3.8V52.4c0-6.3-6.1-10.9-11.2-11.1a11.8,11.8,0,0,0-11.4,6.5V28.2H122V39.8c2-1.6,4.7-2.1,7.6-2.1,7.5,0,14.9,6.6,14.9,14.8V72.2Z" fill="#fff" fill-rule="evenodd"/>
          <path id="Path_955" data-name="Path 955" d="M198.3,72.3V37.9h3.8L202,72.3Z" fill="#fff" fill-rule="evenodd"/>
          <path id="Path_956" data-name="Path 956" d="M221,55.8V72.4h3.8V53.5a10.479,10.479,0,0,0-10.6-10.6,10.67,10.67,0,0,0-10.6,10.6V72.4h3.7V54.1c0-3.8,3.1-7.3,6.9-7.3a7.065,7.065,0,0,1,6.9,7.3v1.8Z" fill="#fff" fill-rule="evenodd"/>
          <path id="Path_957" data-name="Path 957" d="M230,72.3h-3.8V52.6c0-6.3-6.2-11.3-11.3-11.3s-9.2,2.2-11.4,6.8V37.9h4.1V40c2-1.6,4.5-2.1,7.4-2.1a15,15,0,0,1,15,14.8V72.4Z" fill="#fff" fill-rule="evenodd"/>
          <rect id="Rectangle_176" data-name="Rectangle 176" width="3.7" height="34.4" transform="translate(76 37.9)" fill="#fff"/>
          <path id="Path_958" data-name="Path 958" d="M81.1,50.6V37.9h3.6v3.4c2.9-3.7,8.2-3.5,8.2-3.5v4.1c-3.6,0-9.3,1.7-11.8,8.7Z" fill="#fff" fill-rule="evenodd"/>
          <path id="Path_959" data-name="Path 959" d="M81.1,72.3V57.9c0-2.7.6-13.8,11.8-14.5v4.2c-2.6,0-8.1,1.5-8.2,11V72.3H81.1Z" fill="#fff" fill-rule="evenodd"/>
          <path id="Path_960" data-name="Path 960" d="M3.4,26.9H10L31.4,54.4V26.9H35V65.8L7.2,29.4V72.3H3.4Z" fill="#fff" fill-rule="evenodd"/>
          <path id="Path_961" data-name="Path 961" d="M40.3,72.3H33.6L12.4,44.8V72.3H8.7V33.7L36.5,70.2V26.9h3.8Z" fill="#fff" fill-rule="evenodd"/>
          <rect id="Rectangle_177" data-name="Rectangle 177" width="3.7" height="34.4" transform="translate(180.1 37.9)" fill="#fff"/>
          <path id="Path_962" data-name="Path 962" d="M185.2,50.8v-13h3.6v3.4c2.9-3.7,8.2-3.5,8.2-3.5v4.1a12.6,12.6,0,0,0-11.8,8.9Z" fill="#fff" fill-rule="evenodd"/>
          <path id="Path_963" data-name="Path 963" d="M185.2,72.3V57.9c0-2.7.6-13.8,11.8-14.5v4.2c-2.6,0-8.1,1.5-8.2,11V72.3Z" fill="#fff" fill-rule="evenodd"/>
          <path id="Path_964" data-name="Path 964" d="M45.7,55.2A12.5,12.5,0,1,1,58.2,67.7,12.5,12.5,0,0,1,45.7,55.2Zm3.9,0a8.6,8.6,0,1,1,8.6,8.6,8.6,8.6,0,0,1-8.6-8.6Z" fill="#fff" fill-rule="evenodd"/>
          <path id="Path_965" data-name="Path 965" d="M40.1,55.2A18.1,18.1,0,1,1,58.2,73.3,18.1,18.1,0,0,1,40.1,55.2Zm4.2,0A13.9,13.9,0,1,1,58.2,69.1,13.934,13.934,0,0,1,44.3,55.2Z" fill="#fff" fill-rule="evenodd"/>
          <path id="Path_966" data-name="Path 966" d="M149.8,53.8a12.464,12.464,0,0,1,24.8,0Zm5.1-3.5a8.44,8.44,0,0,1,7.2-3.9c3,0,6,1.4,7.2,3.9Z" fill="#fff" fill-rule="evenodd"/>
          <path id="Path_967" data-name="Path 967" d="M172.8,61.7a11.872,11.872,0,0,1-10.7,6,12.569,12.569,0,0,1-12.5-12.5h26.5a13.9,13.9,0,1,0-14,13.7c7.6,0,9.9-2.8,12.3-7.3h4.5c-2.3,6.9-9.3,11.4-16.8,11.4S144,65,144,55a18.1,18.1,0,0,1,36.2,0c0,10-.1,2.6-.4,3.8h-25a8.071,8.071,0,0,0,7.4,4.8,7.533,7.533,0,0,0,5.6-2.1h5.1Z" fill="#fff" fill-rule="evenodd"/>
        </g>
        <g id="Group_500" data-name="Group 500">
          <path id="Path_968" data-name="Path 968" d="M549.4,46H410.8V44.1H549.4V46Z" fill="#fff"/>
          <path id="Path_969" data-name="Path 969" d="M549.4,72.9H410.7V71H549.4v1.9Z" fill="#fff"/>
          <path id="Path_970" data-name="Path 970" d="M549.4,53h-9.1V68.6h-9.7c0-7.8.2-10.3,0-15.6h-8.8V48.9h27.5V53Z" fill="#fff" fill-rule="evenodd"/>
          <path id="Path_971" data-name="Path 971" d="M425.2,48.8s4.4,8.3,6.7,12.4c.2.1,4.9-9.2,6.4-12.4h14.9V68.5h-8.9s.6-10.1.8-15.1c0,0-.2-.2-.3-.1-2.7,4.4-8.7,15-8.7,15h-8.6c-2.9-5-5.2-10-8.2-14.9h-.2c0,5,.7,10.1.8,15.2h-9.3V48.9h14.5Z" fill="#fff" fill-rule="evenodd"/>
          <path id="Path_972" data-name="Path 972" d="M510.5,48.8c3.8,0,7.6.2,9.2,3.9.8,2.4.2,5.8-1.2,6.7s-3.3,1.1-5.1,1.5c0,.2,0,.3.2.3,1.7-.1,4.7.4,5.8,2.4.4.8.2,3.3.2,5h-9.7c-.2-1.7.6-3.9-1.2-4.8-2-1.2-6-.3-9.3-.5h-.1v5.3h-9.7V48.9h20.8Zm-32.2,0S485.5,62,489,68.5h-9.1L478,65.3H465.5l-1.6,3.2h-9.3C458,62,465,48.8,465,48.8h13.3Zm-1.9,12.9h-9.2l4.4-8.6,4.8,8.6Zm31-8.5c1.7.2,2.5.6,2.9,1.2a4.961,4.961,0,0,1,0,3.6c-.5.7-2.3.8-3.6.8h-7.2V53.3a52.941,52.941,0,0,1,8,0Z" fill="#fff" fill-rule="evenodd"/>
          <path id="Path_973" data-name="Path 973" d="M272.2,86.9v-.3c-1-2.6,0-4.9.9-7.1.2-.5.4-1,.6-1.6,10.1-21.1,25.4-40.1,40.2-58.5h0a5.548,5.548,0,0,1,4.4,2.9,4.154,4.154,0,0,1,0,3.1.749.749,0,0,1-.1.5L307.9,58.4a1.421,1.421,0,0,1-.2.6,1.421,1.421,0,0,1-.2.6h.1c0,.1,2-2.7,2-2.7,13.2-18.3,26.9-37.2,45.7-49.8.4-.2.7-.3,1.1-.5a19.506,19.506,0,0,1,2.9-1.1v.3C338.8,24.1,319.6,48,300.9,78.6h-.3c-1.3-.3-3.4-2.4-3.4-3.4a8.423,8.423,0,0,1,.4-2.7c.2-1,5.6-19.3,8.4-28.7l3-10.2c-15,19.3-27,36.7-36.7,53.2l-.2.3h0Z" fill="#fff"/>
          <path id="Path_974" data-name="Path 974" d="M391.6,75.3a3.194,3.194,0,0,1-2.4-1.1,5.222,5.222,0,0,1-1.4-1.9,9.449,9.449,0,0,0-.3-.9,6.723,6.723,0,0,1,.3-1.8c2.1-8.5,7.8-15.9,13.4-22.8l1.5-1.9c-11.9,7.1-21,17.8-28.5,27.3a4.331,4.331,0,0,0-.5.1c-1.2,0-2.6-1.6-3-2.2a1.933,1.933,0,0,1,0-1.5,23.046,23.046,0,0,1,1.6-2.7,19.1,19.1,0,0,0,1.6-2.7q-2.55,1.95-4.8,3.9a46.359,46.359,0,0,1-7.4,5.6,4.694,4.694,0,0,1-3.8-3.1c-.2-2.2.2-2.7,2.9-8.1,2.8-5.4,12.1-18.9,19.1-27.5,0,0,0-.2-.4-.2-.3,0-12.1.7-18.3,1-2.9.1-5.7.3-8.7.4v-.3c8.6-1.9,20-4.3,31.2-5.2l7.6-8.3h.7a6.352,6.352,0,0,1,5,2.2h0v.2c-.5.6-1.1,1.3-1.8,2a27.3,27.3,0,0,0-2.8,3.3,30,30,0,0,0,3,0,20.833,20.833,0,0,1,2.5,0h.1v.4l-3.8,3.8-6.1.4c-8.3,8.9-16.1,19.7-23.9,32.9h.3c2.2-1.7,4.7-3.4,7-5.1,2.4-1.7,4.9-3.4,7.2-5.2,9.1-12.7,20.4-27.5,34.7-41.3h.6a5.061,5.061,0,0,1,3.3,1.7,11.319,11.319,0,0,0,1.3,1h0v.4a260.852,260.852,0,0,0-29.1,33.1c.9-.8,1.9-1.5,2.8-2.3,4.5-3.7,9.1-7.6,14.7-9.3h.7c1.9,0,3.1,1.6,4,3,.4.7.5.9.5,1.1s-.4.6-.4.6c-1.8,2.3-3.7,4.4-5.5,6.5A90.068,90.068,0,0,0,398,61.2l-.8,1.2a49.576,49.576,0,0,0-4.3,7.8h.4c1.1-.8,2.4-1.8,3.5-2.7,3.2-2.5,6.2-4.9,10.5-5.2h.2V63a77.342,77.342,0,0,0-8.1,6.6,85.449,85.449,0,0,1-7.1,5.9h-.7Z" fill="#fff"/>
          <path id="Path_975" data-name="Path 975" d="M341,72.8a3.853,3.853,0,0,1-2.2-.9,2.65,2.65,0,0,1-1-3c3.1-5.2,6.3-10.4,9.5-15.5,1.8-3,3.7-5.9,5.5-8.9-.2-.3-.8,0-1.2.1-.4.2-3.1,1.8-3.1,1.8v-.3c.3-3.1,3.4-4.4,5.9-5.4.4-.2.8-.3,1.2-.5a3.414,3.414,0,0,1,3.3,2.2,4.72,4.72,0,0,1-.2,1.5c-.2.3-4.2,6.4-4.2,6.4h.2l.8-.8c4.6-4.4,9.8-9.4,15.9-11h.5a4.023,4.023,0,0,1,2.6.6l.2.2h-.2c-5,2-9.4,5.8-13.8,9.9-5.6,5.6-10.7,12.4-15.8,19-1.1,1.5-2.2,2.9-3.3,4.4a3.537,3.537,0,0,0-.6.1h0Z" fill="#fff"/>
          <path id="Path_976" data-name="Path 976" d="M410.8,43.7" fill="#fff" stroke="#231f20" stroke-miterlimit="3.9" stroke-width="0.7" fill-rule="evenodd"/>
          <path id="Path_977" data-name="Path 977" d="M323.5,74.6a3.859,3.859,0,0,1-2-.6c-2.9-2-4.4-3.9-4.6-5.9.2-6.5,3-13.3,8.7-20.8,3.7-4.4,7-7,10.4-8.2h0c1.6,0,2.7,1,3.8,2.2h.1a6.215,6.215,0,0,1,3.3-1.5c1.2,0,1,.2,1.2.4.3.2.5.4.8.6a6.73,6.73,0,0,1,1.4,1.5,3.115,3.115,0,0,1,.4,2.6c-2.9,9.8-9.4,19.5-17.8,26.7-.9.7-3.9,3.1-5.9,3.1h0Zm10.7-26.4-3.8,4.5-.4.6c-3.3,5.1-6.8,10.3-7.5,16.6,0,.2.2.4.7.4h.4c3.7-2,6.1-4.7,9-7.9.6-.7,1.2-1.3,1.8-2,4-5.4,7.4-10.3,8.6-16.1,0,0-.1-.2-.6-.1-1.7.4-3.8,3.3-5.2,5.5-.3.5-.6.9-.8,1.3a7.663,7.663,0,0,1-.7,1.7c-.6,1.1-1.1,2.1-.4,3.1h0V56a.735.735,0,0,1-.6.2h-.6a2.82,2.82,0,0,1-1.6-3.1,10.02,10.02,0,0,1,1.1-3.8,4.179,4.179,0,0,0,.4-1h0Z" fill="#fff"/>
        </g>
      </g>
    </g>
  </g>
</svg>
