<svg xmlns="http://www.w3.org/2000/svg" width="128" height="26.21" viewBox="0 0 128 26.21">
  <g id="Northern-horiztal-primaryBlue" transform="translate(-1.7 -1.8)">
    <g id="Layer_1" transform="translate(1.7 1.8)">
      <g id="Group_657" data-name="Group 657">
        <path id="Path_949" d="M106.319,10.982V8.61H104V3.3h-2.2v7.682Z" transform="translate(-45.256 -2.453)" fill="#005cab" fill-rule="evenodd"/>
        <path id="Path_950" d="M92.6,18.3v2.372h2.259V34.625h2.2V18.3Z" transform="translate(-41.253 -8.98)" fill="#005cab" fill-rule="evenodd"/>
        <path id="Path_951" d="M106.319,18.3v2.372H104V34.625h-2.2V18.3Z" transform="translate(-45.256 -8.98)" fill="#005cab" fill-rule="evenodd"/>
        <path id="Path_952" d="M92.6,10.982V8.61h2.259V3.3h2.2v7.682Z" transform="translate(-41.253 -2.453)" fill="#005cab" fill-rule="evenodd"/>
        <rect id="Rectangle_175" width="2.147" height="24.798" transform="translate(61.91 0.847)" fill="#005cab"/>
        <path id="Path_953" d="M126.429,25.087v9.377h2.147V23.788a5.979,5.979,0,0,0-5.931-5.988h-.056a6.027,6.027,0,0,0-5.988,5.988V34.464h2.09V24.127a4.105,4.105,0,0,1,3.9-4.124,3.944,3.944,0,0,1,3.9,4.067h0v1.017h-.056Z" transform="translate(-51.696 -8.762)" fill="#005cab" fill-rule="evenodd"/>
        <path id="Path_954" d="M131.413,28.011h-2.146V16.77c0-3.559-3.446-6.157-6.327-6.27a6.644,6.644,0,0,0-6.44,3.672V3.1h2.147V9.653a6.747,6.747,0,0,1,4.293-1.186,8.654,8.654,0,0,1,8.417,8.36V27.954h.056Z" transform="translate(-51.653 -2.366)" fill="#005cab" fill-rule="evenodd"/>
        <path id="Path_955" d="M196.6,32.232V12.8h2.146V32.232Z" transform="translate(-86.507 -6.586)" fill="#005cab" fill-rule="evenodd"/>
        <path id="Path_956" d="M211.729,25.087v9.377h2.146V23.788A5.967,5.967,0,0,0,208,17.8h-.113a6.027,6.027,0,0,0-5.988,5.988V34.464h2.09V24.127a4.105,4.105,0,0,1,3.9-4.124,3.944,3.944,0,0,1,3.9,4.067h0v1.017h0Z" transform="translate(-88.813 -8.762)" fill="#005cab" fill-rule="evenodd"/>
        <path id="Path_957" d="M216.769,32.232h-2.146V21.1c0-3.559-3.5-6.383-6.383-6.383a6.678,6.678,0,0,0-6.44,3.841V12.8h2.316v1.186A6.421,6.421,0,0,1,208.3,12.8a8.475,8.475,0,0,1,8.473,8.36V32.288h0Z" transform="translate(-88.769 -6.586)" fill="#005cab" fill-rule="evenodd"/>
        <rect id="Rectangle_176" width="2.09" height="19.432" transform="translate(41.01 6.214)" fill="#005cab"/>
        <path id="Path_958" d="M79.4,19.93V12.756h2.034v1.921A6.118,6.118,0,0,1,86.065,12.7v2.316A6.957,6.957,0,0,0,79.4,19.93Z" transform="translate(-35.509 -6.542)" fill="#005cab" fill-rule="evenodd"/>
        <path id="Path_959" d="M79.4,34.625V26.491c0-1.525.339-7.8,6.665-8.191v2.372c-1.469,0-4.575.847-4.632,6.214v7.739H79.4Z" transform="translate(-35.509 -8.98)" fill="#005cab" fill-rule="evenodd"/>
        <path id="Path_960" d="M1.7,1.8H5.428L17.516,17.334V1.8H19.55V23.774L3.847,3.212V27.445H1.7Z" transform="translate(-1.7 -1.8)" fill="#005cab" fill-rule="evenodd"/>
        <path id="Path_961" d="M24.85,27.445H21.065L9.09,11.911V27.445H7V5.641L22.7,26.259V1.8H24.85Z" transform="translate(-4.006 -1.8)" fill="#005cab" fill-rule="evenodd"/>
        <rect id="Rectangle_177" width="2.09" height="19.432" transform="translate(99.813 6.214)" fill="#005cab"/>
        <path id="Path_962" d="M183.5,20V12.656h2.034v1.921a6.118,6.118,0,0,1,4.632-1.977v2.316a7.141,7.141,0,0,0-6.665,5.027h0Z" transform="translate(-80.806 -6.499)" fill="#005cab" fill-rule="evenodd"/>
        <path id="Path_963" d="M183.5,34.625V26.491c0-1.525.339-7.8,6.665-8.191v2.372c-1.469,0-4.575.847-4.632,6.214v7.739H183.5Z" transform="translate(-80.806 -8.98)" fill="#005cab" fill-rule="evenodd"/>
        <path id="Path_964" d="M44,24.661a7.061,7.061,0,1,1,7.061,7.061h0A7.063,7.063,0,0,1,44,24.661Zm2.2,0a4.858,4.858,0,1,1,4.858,4.858A4.894,4.894,0,0,1,46.2,24.661Z" transform="translate(-20.106 -8.675)" fill="#005cab" fill-rule="evenodd"/>
        <path id="Path_965" d="M38.4,22.224A10.224,10.224,0,1,1,48.624,32.448,10.222,10.222,0,0,1,38.4,22.224Zm2.372,0a7.852,7.852,0,1,1,7.852,7.852h0A7.835,7.835,0,0,1,40.772,22.224Z" transform="translate(-17.669 -6.238)" fill="#005cab" fill-rule="evenodd"/>
        <path id="Path_966" d="M148.1,23.842a7.043,7.043,0,0,1,14.009,0Zm2.881-1.977a4.779,4.779,0,0,1,4.067-2.2,4.451,4.451,0,0,1,4.067,2.2Z" transform="translate(-65.403 -8.647)" fill="#005cab" fill-rule="evenodd"/>
        <path id="Path_967" d="M158.525,25.809a6.8,6.8,0,0,1-6.044,3.389,7.063,7.063,0,0,1-7.061-7.061h14.969a7.853,7.853,0,1,0-7.965,7.739h0c4.293,0,5.592-1.582,6.948-4.124h2.542a9.906,9.906,0,0,1-9.49,6.44c-4.237,0-10.224-4.519-10.224-10.168a10.224,10.224,0,0,1,20.448,0c0,5.649-.056,1.469-.226,2.147H148.3a4.593,4.593,0,0,0,4.18,2.711,4.341,4.341,0,0,0,3.163-1.186h2.881v.113Z" transform="translate(-62.836 -6.151)" fill="#005cab" fill-rule="evenodd"/>
      </g>
    </g>
  </g>
</svg>
