<svg xmlns="http://www.w3.org/2000/svg" width="496.2" height="390.2" viewBox="0 0 496.2 390.2">
  <g id="price_drop" transform="translate(-19.8 -4.7)" style="isolation: isolate">
    <g id="Layer_1">
      <g id="Group_33" data-name="Group 33">
        <g id="Group_27" data-name="Group 27">
          <g id="Group_26" data-name="Group 26" opacity="0.3" style="mix-blend-mode: multiply;isolation: isolate">
            <path id="Path_102" data-name="Path 102" d="M515.9,24.1c-4.8-5.5-18.2-9.5-34-9.5s-4.8,0-7.2.3l-31.1,2.9L67.8,61.3q-3.45.3-7.2.3c-15.8,0-29.2-4-34-9.5V385.4c4.8,5.5,18.2,9.5,34,9.5s4.8,0,7.2-.3l375.9-44.1,31.1-2.9q3.45-.3,7.2-.3c15.8,0,29.2,4,34,9.5V24.1Z" fill="#211e1f"/>
          </g>
          <path id="Path_103" data-name="Path 103" d="M509.2,14.2c-4.8-5.5-18.2-9.5-34-9.5s-4.8,0-7.2.3L436.9,7.9,61,51.4q-3.45.3-7.2.3c-15.8,0-29.2-4-34-9.5V375.5c4.8,5.5,18.2,9.5,34,9.5s4.8,0,7.2-.3l375.9-44.1,31.1-2.9q3.45-.3,7.2-.3c15.8,0,29.2,4,34,9.5Z" fill="#e61d35"/>
        </g>
        <g id="Group_32" data-name="Group 32">
          <g id="Group_28" data-name="Group 28">
            <path id="Path_104" data-name="Path 104" d="M109.4,113.7l33.4-3.6c19.2-2.1,32.3,8.2,32.3,27.5,0,19.4-13.1,32.5-32.3,34.6l-13,1.4v35.9l-20.4,2.2Zm33.2,16.2-12.7,1.4v22.6l12.7-1.4c6.6-.7,11.5-5,11.5-12.5C154.1,132.4,149.2,129.1,142.6,129.9Z" fill="#bc202e"/>
            <path id="Path_105" data-name="Path 105" d="M186.3,105.9l33.8-3.6c19.2-2.1,32.4,6.9,32.4,25,0,14-8.1,22.9-17.7,26.7,12.2,5,19.6,21.5,21.9,42.3l-21.2,2.3c-3.5-20.9-11.8-35.2-23.8-33.9l-5,.5v36.4l-20.4,2.2v-98ZM220.2,122l-13.4,1.4v22l13.4-1.4c6.5-.7,11.4-5.1,11.4-12.2,0-7.2-4.9-10.6-11.4-9.9Z" fill="#bc202e"/>
            <path id="Path_106" data-name="Path 106" d="M273.9,96l20.5-2.2V199.7L274,201.9V96Z" fill="#bc202e"/>
            <path id="Path_107" data-name="Path 107" d="M380.2,179.7a55.019,55.019,0,0,1-22.3,7.4c-28.7,3.1-50.4-16.5-50.4-45.2a56.409,56.409,0,0,1,50.4-56,49.261,49.261,0,0,1,22.3,2.6V112c-5.5-4.2-13.2-6.6-22.3-5.7-16.7,1.8-29.4,16.7-29.4,33.3,0,16.7,12.5,28.8,29.4,27a38.436,38.436,0,0,0,22.3-10.3v23.4Z" fill="#bc202e"/>
            <path id="Path_108" data-name="Path 108" d="M395.8,181V83l55.7-6V96.7l-35.3,3.8v19l32.4-3.5v19.7l-32.4,3.5v19.7l35.3-3.8v19.7l-55.7,6Z" fill="#bc202e"/>
            <path id="Path_109" data-name="Path 109" d="M306.5,193.5l-22.3,27.7-22-23.5Z" fill="#bc202e" fill-rule="evenodd"/>
          </g>
          <g id="Group_29" data-name="Group 29">
            <path id="Path_110" data-name="Path 110" d="M109.3,230l34.3-3.7c28.2-3,45.8,14.3,45.8,41.4s-17.6,48.2-45.8,51.2l-34.3,3.7V229.9Zm19.3,16.5v55.3l14.9-1.6c16.8-1.8,25.9-14.6,25.9-30.4,0-15.7-9.1-26.7-25.9-24.9Z" fill="#bc202e"/>
            <path id="Path_111" data-name="Path 111" d="M207.1,219.5l32-3.4c18.1-1.9,30.7,6.5,30.7,23.7,0,13.2-7.6,21.7-16.8,25.2,11.6,4.8,18.5,20.4,20.7,40l-20,2.1c-3.3-19.8-11.2-33.3-22.5-32.1l-4.8.5V310l-19.3,2.1V219.4Zm32,15.2-12.7,1.4v20.8l12.7-1.4c6.1-.7,10.8-4.8,10.8-11.5C249.9,237.2,245.3,234,239.1,234.7Z" fill="#bc202e"/>
            <path id="Path_112" data-name="Path 112" d="M334,204.5c27.1-2.9,47.7,15.6,47.7,42.7A53.361,53.361,0,0,1,334,300.1c-27.1,2.9-47.7-15.6-47.7-42.7A53.361,53.361,0,0,1,334,204.5Zm0,76.3c15.7-1.7,27.7-15.6,27.7-31.4,0-15.7-12-27.2-27.7-25.5-15.8,1.7-27.8,15.8-27.8,31.5,0,15.8,12,27.2,27.8,25.5Z" fill="#bc202e"/>
            <path id="Path_113" data-name="Path 113" d="M397.7,199l31.6-3.4c18.1-1.9,30.5,7.8,30.5,26,0,18.4-12.4,30.8-30.5,32.7L417,255.6V305l-19.3,2.1V198.9Zm31.4,15.3-12,1.3V237l12-1.3c6.3-.7,10.9-4.7,10.9-11.8,0-7.2-4.6-10.3-10.9-9.6Z" fill="#bc202e"/>
            <path id="Path_114" data-name="Path 114" d="M428.9,301.4l-22.3,27.8-22-23.5Z" fill="#bc202e" fill-rule="evenodd"/>
          </g>
          <g id="Group_30" data-name="Group 30">
            <path id="Path_115" data-name="Path 115" d="M97.6,106.9l33.4-3.6c19.2-2.1,32.3,8.2,32.3,27.5s-13.1,32.5-32.3,34.6l-13,1.4v35.9l-20.4,2.2v-98Zm33.1,16.2L118,124.5v22.6l12.7-1.4c6.6-.7,11.5-5,11.5-12.5,0-7.6-4.9-10.9-11.5-10.1Z" fill="#fff"/>
            <path id="Path_116" data-name="Path 116" d="M174.5,99.1l33.8-3.6c19.2-2.1,32.4,6.9,32.4,25,0,14-8.1,22.9-17.7,26.7,12.2,5,19.6,21.5,21.9,42.3l-21.2,2.3c-3.5-20.9-11.8-35.2-23.8-33.9l-5,.5v36.4L174.5,197V99.1Zm33.8,16.1-13.4,1.4v22l13.4-1.4c6.5-.7,11.4-5.1,11.4-12.2,0-7.2-4.9-10.6-11.4-9.9Z" fill="#fff"/>
            <path id="Path_117" data-name="Path 117" d="M262.1,89.2,282.6,87V192.9l-20.4,2.2V89.2Z" fill="#fff"/>
            <path id="Path_118" data-name="Path 118" d="M368.4,172.9a55.019,55.019,0,0,1-22.3,7.4c-28.7,3.1-50.4-16.5-50.4-45.2a56.409,56.409,0,0,1,50.4-56,49.261,49.261,0,0,1,22.3,2.6v23.5c-5.5-4.2-13.2-6.6-22.3-5.7-16.7,1.8-29.4,16.7-29.4,33.3,0,16.7,12.5,28.8,29.4,27a38.436,38.436,0,0,0,22.3-10.3v23.4Z" fill="#fff"/>
            <path id="Path_119" data-name="Path 119" d="M384,174.3v-98l55.7-6V90l-35.3,3.8v19l32.4-3.5V129l-32.4,3.5v19.7l35.3-3.8v19.7l-55.7,6Z" fill="#fff"/>
            <path id="Path_120" data-name="Path 120" d="M294.6,186.7l-22.2,27.7-22-23.5Z" fill="#fff" fill-rule="evenodd"/>
          </g>
          <g id="Group_31" data-name="Group 31">
            <path id="Path_121" data-name="Path 121" d="M97.4,223.2l34.3-3.7c28.2-3,45.8,14.3,45.8,41.4s-17.6,48.2-45.8,51.2l-34.3,3.7V223.1Zm19.4,16.6v55.3l14.9-1.6c16.8-1.8,25.9-14.6,25.9-30.4,0-15.7-9.1-26.7-25.9-24.9l-14.9,1.6Z" fill="#fff"/>
            <path id="Path_122" data-name="Path 122" d="M195.3,212.7l32-3.4c18.1-1.9,30.7,6.5,30.7,23.7,0,13.2-7.6,21.7-16.8,25.2,11.6,4.8,18.5,20.4,20.7,40l-20,2.1c-3.3-19.8-11.2-33.3-22.5-32.1l-4.8.5v34.5l-19.3,2.1V212.6Zm32,15.2-12.7,1.4v20.8l12.7-1.4c6.1-.7,10.8-4.8,10.8-11.5C238.1,230.4,233.5,227.2,227.3,227.9Z" fill="#fff"/>
            <path id="Path_123" data-name="Path 123" d="M322.1,197.7c27.1-2.9,47.7,15.6,47.7,42.7a53.361,53.361,0,0,1-47.7,52.9c-27.1,2.9-47.7-15.6-47.7-42.7a53.361,53.361,0,0,1,47.7-52.9Zm0,76.4c15.7-1.7,27.7-15.6,27.7-31.4,0-15.7-12-27.2-27.7-25.5-15.8,1.7-27.8,15.8-27.8,31.5,0,15.8,12,27.2,27.8,25.5Z" fill="#fff"/>
            <path id="Path_124" data-name="Path 124" d="M385.9,192.3l31.6-3.4c18.1-1.9,30.5,7.8,30.5,26,0,18.4-12.4,30.8-30.5,32.7l-12.3,1.3v49.4l-19.3,2.1V192.2Zm31.3,15.3-12,1.3v21.4l12-1.3c6.3-.7,10.9-4.7,10.9-11.8,0-7.2-4.6-10.3-10.9-9.6Z" fill="#fff"/>
            <path id="Path_125" data-name="Path 125" d="M417.1,294.7l-22.3,27.7-22-23.5Z" fill="#fff" fill-rule="evenodd"/>
          </g>
        </g>
      </g>
    </g>
  </g>
</svg>
