<svg xmlns="http://www.w3.org/2000/svg" width="712" height="293.429" viewBox="0 0 712 293.429">
  <g id="helping_you_save_more" transform="translate(-6.1 -12.1)">
    <g id="Layer_1" transform="translate(6.1 12.1)">
      <g id="Group_25" data-name="Group 25">
        <g id="Group_21" data-name="Group 21" transform="translate(17.439 63.502)">
          <path id="Path_72" data-name="Path 72" d="M54.938,205.991h.924c7.947-1.016,21.161,5.36,19.868,9.888-5.082.37-11.459,7.3-10.627,14.138.832,7.577,16.171,22.455,19.683,37.517a33.689,33.689,0,0,1,.739,6.838c6.931-8.594,12.2-21.439,14.785-35.115.554-1.016,6.376,1.109,6.376,3.419-2.033,21.254-11.921,40.382-24.95,47.867C77.67,297.475,70,303.2,57.248,305.052c-29.2,3.234-41.121-34.653-25.135-36.5,6.838-.739,21.161,5.267,31.881,8.224a31.392,31.392,0,0,0-.462-6.376c-2.5-12.2-12.567-23.1-15.247-39.458l-5.637,25.782c-1.479,1.571-6.191.462-6.746-4.343.832-3.049,3.7-14.508,5.914-25.6,2.587-12.29,4.713-19.5,13.122-20.884Zm7.485,78.731c-13.307-3.327-19.96-4.713-21.439-3.419-2.125,1.848.092,13.584,8.594,12.66a16.9,16.9,0,0,0,12.845-9.333Z" transform="translate(-24.972 -90.315)" fill="#e61d35"/>
          <path id="Path_73" data-name="Path 73" d="M186.055,231.118h.647c1.848-.277,5.637.924,5.822,2.31.37,1.571-7.115,49.992-26.059,52.118-12.29,1.386-21.069-6.653-23.472-17.927a3.265,3.265,0,0,1-.37-1.571c-2.865,15.34-7.762,27.907-18.481,29.108-7.762.832-20.7-5.082-24.673-21.993-5.082-22.732,1.663-69.49,25.689-72.17,9.61-1.109,36.593,9.056,32.065,20.237l-.554,1.016c4.528,1.571,9.056,4.528,11.181,8.686-4.158,18.3-5.914,42.045,0,41.4,9.61-1.109,18.3-41.121,18.3-41.121Zm-42.507-6.1c-2.31-8.317-5.082-12.105-8.686-11.736-15.247,1.756-19.313,68.751-9.8,67.642,7.115-.832,15.247-39.366,18.482-55.907Z" transform="translate(-30.508 -89.938)" fill="#e61d35"/>
          <path id="Path_74" data-name="Path 74" d="M245.47,199.847c1.294,9.333.277,22.825-2.68,36.316a9.584,9.584,0,0,0,6.653,1.571c7.947-.924,13.029-9.518,14.785-18.944,1.479-.832,5.822,2.587,5.729,5.822-.647,10.442-7.485,22.085-21.623,23.656a20.052,20.052,0,0,1-8.594-.647c-5.822,18.2-15.617,33.914-28.369,35.3-8.686,1.016-19.036-4.62-22.27-17.188-4.436-14.785-6.284-64.038,3.142-65.055,2.957-.37,13.4,1.941,19.128,5.914-3.049,3.327-9.426,64.131,2.218,62.837,7.115-.832,11.643-22.363,13.122-31.7-10.9-12.845-5.267-49.53,4.251-50.639,7.115-.832,13.492,7.3,14.6,12.66Z" transform="translate(-37.157 -88.884)" fill="#e61d35"/>
          <path id="Path_75" data-name="Path 75" d="M261.066,244.246c-2.772-25.135,8.594-57.108,23.934-58.864a18.786,18.786,0,0,1,6.561.647c1.756-3.234,5.175-5.452,7.485-5.729,9.888,1.479,14.693,9.7,15.8,19.683,2.4,21.254-11.736,50.085-31.973,42.415l.37,2.957c1.109,9.61,7.208,19.036,17.28,17.927,17.1-1.941,29.108-33.082,32.62-49.438a6.663,6.663,0,0,1,6.653,3.419s-8.132,55.629-43.709,59.7c-20.33,2.31-32.8-14.323-34.838-32.8Zm35.484-46.481c-6.653,4.9-13.029,21.808-13.769,38.072C300.246,237.131,303.666,203.679,296.55,197.765Z" transform="translate(-42.866 -88.373)" fill="#e61d35"/>
          <path id="Path_76" data-name="Path 76" d="M503.856,195.166c1.756-.647,6.561.924,6.561,2.5.277,4.158-8.039,50.362-26.244,52.4a23.335,23.335,0,0,1-25.6-17.742c-3.327-14.878.185-31.7,2.033-43.894.832-4.99-1.756-5.082-4.805.277-5.914,11.089-17.188,38.626-15.709,68.289-12.29,1.386-21.439-3.419-23.564-12.383-1.848-10.627-.647-44.725,1.2-57.2.647-4.9-1.941-5.082-4.805.277-6.191,11.089-16.541,39.735-15.34,69.4-10.534,1.2-20.7-7.393-22.917-17.1-3.419-16.449-.832-62.745,3.511-63.207s14.323-.462,21.346,4.805c-1.479,4.99-4.158,20.33-5.36,34.838,6.1-24.211,17.742-50.27,22.27-50.824,7.947-.924,25.412,10.35,25.874,14.416-1.848,4.158-4.158,18.482-5.082,34.745,6.1-23.564,17.742-47.775,22.363-48.237,7.762-.832,26.336,10.257,26.8,14.323-3.049,7.485-13.492,57.2-2.772,56,11-1.2,20.237-41.768,20.237-41.768Z" transform="translate(-51.403 -87.252)" fill="#e61d35"/>
          <path id="Path_77" data-name="Path 77" d="M567.059,221.419c-3.789,15.432-12.567,28.184-26.891,29.848-20.977,2.31-32.158-16.726-34.006-33.636-2.4-21.254,4.99-45.834,13.029-46.758h.462c1.2-6.191,5.729-10.627,10.812-11.181,9.8-1.109,23.749,6.1,27.075,8.317,6.284,4.343,10.072,13.861,11.459,25.782a94.416,94.416,0,0,1,.185,16.171c7.947-3.419,14.138-11.736,16.449-24.488.092-.924,6.1.924,6.376,3.234-1.109,16.726-12.013,29.108-24.765,32.8Zm-39.366-10.9a76.916,76.916,0,0,0,0,15.987c.924,8.409,3.7,14.138,8.686,13.584s9.056-7.947,11.643-17.927a37.963,37.963,0,0,1-20.237-11.643Zm22.455.277a107.284,107.284,0,0,0,.647-24.765c-1.109-9.8-4.158-16.818-9.426-16.264-2.31.277-4.9,1.941-7.115,4.528,2.865,1.016,5.175,2.68,5.267,4.066a1.655,1.655,0,0,1-.37,1.2c-3.511,2.033-6.561,7.67-8.5,15.062,5.36,8.409,11.736,13.954,19.406,16.356Z" transform="translate(-61.471 -86.799)" fill="#e61d35"/>
          <path id="Path_78" data-name="Path 78" d="M610.459,216.865c-1.663-8.594-.462-37.148,4.62-49.992a60.528,60.528,0,0,1-13.769,2.68l-4.62,24.58c-1.478,1.571-5.729.185-6.561-4.62.739-3.327,2.5-12.752,3.974-20.33-7.3-1.479-11.274-5.914-12.013-12.29-.832-7.762,2.495-21.069,9.61-21.9,5.452-.647,12.29,2.125,15.986,6.561-1.478,1.294-4.436,12.29-6.006,18.666,6.376-.739,15.062-5.637,16.818-6.469,4.343-.462,19.775,7.023,20.792,10.627-2.218,5.36-10.442,34.468-8.871,49.068.647,5.452,3.6,7.485,5.637,7.208,9.61-1.109,20.145-43.339,20.145-43.339h.647c1.848-.277,5.637,1.109,5.822,2.495.37,1.571-8.964,52.118-27.907,54.151-8.871,1.016-21.623-2.865-24.3-17.188Z" transform="translate(-67.262 -84.926)" fill="#e61d35"/>
          <path id="Path_79" data-name="Path 79" d="M653.766,200.346c-2.772-25.135,8.594-57.108,23.934-58.864a18.786,18.786,0,0,1,6.561.647c1.756-3.234,5.175-5.452,7.485-5.729,9.888,1.479,14.693,9.7,15.8,19.683,2.4,21.254-11.736,50.085-31.973,42.415l.37,2.957c1.109,9.61,7.208,19.036,17.28,17.927,17.1-1.941,29.108-33.082,32.62-49.438a6.663,6.663,0,0,1,6.653,3.419s-8.132,55.629-43.709,59.7c-20.33,2.31-32.8-14.323-34.838-32.8Zm35.392-46.481c-6.653,4.9-13.029,21.808-13.769,38.072C692.854,193.231,696.273,159.779,689.158,153.865Z" transform="translate(-72.681 -85.04)" fill="#e61d35"/>
          <path id="Path_80" data-name="Path 80" d="M766.509,204.72c.37,7.115-2.125,17.835-10.165,18.666-3.7.37-12.013,0-15.987-6.284-3.7-6.469-1.756-22.178,8.686-23.379,4.99-.554,16.171,2.125,17.373,11Zm-23.564-32.9c.832-38.257,4.436-90.375,9.7-90.929,5.914-.647,18.112,3.049,21.069,6.653-3.511,6.191-8.871,55.26-9.426,91.391C757.823,180.786,743.592,179.862,742.945,171.823Z" transform="translate(-79.156 -80.82)" fill="#e61d35"/>
        </g>
        <path id="Path_81" data-name="Path 81" d="M346.967,324.066c14.6-7.208,30.125-12.752,45.834-18.112l11.921-3.789c3.974-1.2,7.947-2.31,12.013-3.511,7.947-2.4,16.079-4.343,24.211-6.376l12.2-3.049,12.29-2.587,12.383-2.587,12.383-2.31c16.541-3.049,33.267-5.175,49.992-7.577,33.544-3.6,67.273-6.469,101.094-6.376,16.818-.462,33.729.462,50.455,1.016l6.284.37,6.284.462c4.158.37,8.409.647,12.567,1.109l12.475,1.2,12.475,1.479h0a.553.553,0,0,1,.554.647c0,.277-.37.462-.739.462h-43.8l-6.284.185-25.042.739c-4.158.092-8.317.185-12.475.37l-12.475.739-24.95,1.386-24.95,2.033L579.187,281c-4.158.37-8.317.924-12.475,1.294l-24.858,2.772c-33.082,3.974-65.979,9.056-98.506,15.524l-12.2,2.4c-4.066.832-8.039,1.756-12.105,2.68s-8.132,1.756-12.105,2.772l-12.013,2.957c-15.986,4.066-31.973,8.317-47.405,13.492a.836.836,0,0,1-.924-.277.477.477,0,0,1,.277-.647h0Z" transform="translate(-31.949 -31.504)" fill="#e61d35"/>
        <g id="Group_24" data-name="Group 24">
          <g id="Group_22" data-name="Group 22" transform="translate(8.224 5.822)">
            <path id="Path_82" data-name="Path 82" d="M63.976,131.549l-33.636,3.6v29.663L15,166.479V92.831l15.34-1.663v29.108l33.636-3.6V87.563L79.316,85.9v73.649l-15.34,1.663V131.549Z" transform="translate(-15 -23.525)" fill="#be1e2d"/>
            <path id="Path_83" data-name="Path 83" d="M100.8,157.484V83.836L142.753,79.4V94.278l-26.521,2.865v14.323l24.4-2.587v14.878l-24.4,2.587v14.878l26.521-2.865v14.878L100.8,157.669Z" transform="translate(-21.514 -23.031)" fill="#be1e2d"/>
            <path id="Path_84" data-name="Path 84" d="M160.192,151.312V77.663L175.532,76v58.771l26.521-2.865v14.878L160.1,151.22Z" transform="translate(-26.017 -22.773)" fill="#be1e2d"/>
            <path id="Path_85" data-name="Path 85" d="M215.2,71.763l25.135-2.68c14.416-1.571,24.3,6.191,24.3,20.7s-9.888,24.488-24.3,25.967l-9.7,1.016v26.983l-15.34,1.663V71.763Zm24.858,12.2-9.518,1.016v17l9.518-1.016c4.99-.554,8.686-3.789,8.686-9.333S245.048,83.5,240.058,83.961Z" transform="translate(-30.2 -22.233)" fill="#be1e2d"/>
            <path id="Path_86" data-name="Path 86" d="M279.4,64.963,294.74,63.3v73.649l-15.34,1.663V64.963Z" transform="translate(-35.074 -21.809)" fill="#be1e2d"/>
            <path id="Path_87" data-name="Path 87" d="M327.722,90.454v42.6l-15.34,1.663V70.309L307.3,62.732V61.623l18.2-1.941,32.25,43.432V56.263l15.34-1.663v73.649l-15.34,1.663L327.722,90.547Z" transform="translate(-37.193 -21.148)" fill="#be1e2d"/>
            <path id="Path_88" data-name="Path 88" d="M447.94,65.6a40.044,40.044,0,0,0-19.96-2.68,24.853,24.853,0,0,0-22.27,25.042c0,13.122,8.871,21.716,21.346,20.33,11.828-1.294,18.851-10.165,18.851-18.112s-.092-1.2-.092-1.571l-19.036,2.033V76.684l34.838-3.7a59.262,59.262,0,0,1,1.017,10.627c0,19.406-12.383,37.7-35.947,40.2C405.34,126.122,390,111.152,390,89.714a42.189,42.189,0,0,1,38.072-42.045c7.577-.832,15.062-.277,19.96,1.294V65.6Z" transform="translate(-43.472 -20.593)" fill="#be1e2d"/>
            <path id="Path_89" data-name="Path 89" d="M516.749,81.019,493,41.746,510.373,39.9l14.046,25.135,14.231-28.184L555.837,35,532.088,79.54v31.6l-15.34,1.663V81.019Z" transform="translate(-51.292 -19.66)" fill="#be1e2d"/>
            <path id="Path_90" data-name="Path 90" d="M600.987,29.08c21.531-2.31,37.887,12.383,37.887,33.914a42.407,42.407,0,0,1-37.887,42.045C579.456,107.35,563.1,92.657,563.1,71.126A42.407,42.407,0,0,1,600.987,29.08Zm0,60.619c12.475-1.294,21.993-12.383,21.993-24.95s-9.518-21.623-21.993-20.237C588.42,45.9,578.9,57.08,578.9,69.462S588.42,91.086,600.987,89.7Z" transform="translate(-56.614 -19.193)" fill="#be1e2d"/>
            <path id="Path_91" data-name="Path 91" d="M711.876,18.4V64.327c0,18.112-10.9,30.125-28.184,31.881C666.5,98.055,655.6,88.353,655.6,70.333V24.406l15.34-1.663v47.22c0,7.485,4.9,12.105,12.66,11.274,7.947-.832,12.752-6.561,12.752-14.046V20.063l15.34-1.663Z" transform="translate(-63.637 -18.4)" fill="#be1e2d"/>
          </g>
          <g id="Group_23" data-name="Group 23">
            <path id="Path_92" data-name="Path 92" d="M55.076,125.249l-33.636,3.6v29.663L6.1,160.179V86.531l15.34-1.663v29.108l33.636-3.6V81.263L70.416,79.6v73.649l-15.34,1.663Z" transform="translate(-6.1 -17.225)" fill="#fff"/>
            <path id="Path_93" data-name="Path 93" d="M91.9,151.184V77.536L133.853,73.1V87.978l-26.521,2.865v14.323l24.4-2.587v14.878l-24.4,2.587v14.878l26.521-2.865v14.878L91.9,151.369Z" transform="translate(-12.614 -16.731)" fill="#fff"/>
            <path id="Path_94" data-name="Path 94" d="M151.292,145.012V71.363l15.34-1.663v58.771l26.521-2.865v14.878L151.2,144.92Z" transform="translate(-17.117 -16.473)" fill="#fff"/>
            <path id="Path_95" data-name="Path 95" d="M206.3,65.463l25.135-2.68c14.416-1.571,24.3,6.191,24.3,20.7s-9.888,24.488-24.3,25.967l-9.7,1.016v26.983l-15.34,1.663V65.463Zm24.858,12.105-9.518,1.016v17l9.518-1.016c4.99-.554,8.686-3.789,8.686-9.333S236.148,77.107,231.158,77.569Z" transform="translate(-21.3 -15.933)" fill="#fff"/>
            <path id="Path_96" data-name="Path 96" d="M270.5,58.663,285.84,57v73.649l-15.34,1.663Z" transform="translate(-26.174 -15.509)" fill="#fff"/>
            <path id="Path_97" data-name="Path 97" d="M318.822,84.154v42.6l-15.34,1.663V64.009L298.4,56.432V55.323l18.2-1.941,32.25,43.432V49.963l15.34-1.663v73.649l-15.34,1.663L318.822,84.247Z" transform="translate(-28.293 -14.848)" fill="#fff"/>
            <path id="Path_98" data-name="Path 98" d="M439.04,59.3a40.045,40.045,0,0,0-19.96-2.68,24.853,24.853,0,0,0-22.27,25.042c0,13.122,8.871,21.716,21.346,20.33,11.828-1.294,18.851-10.165,18.851-18.112s-.092-1.2-.092-1.571l-19.036,2.033V70.384l34.838-3.7a59.265,59.265,0,0,1,1.016,10.627c0,19.406-12.383,37.7-35.947,40.2-21.346,2.31-36.686-12.66-36.686-34.1a42.189,42.189,0,0,1,38.072-42.045c7.577-.832,15.062-.277,19.96,1.294V59.3Z" transform="translate(-34.572 -14.293)" fill="#fff"/>
            <path id="Path_99" data-name="Path 99" d="M507.849,74.719,484.1,35.446,501.473,33.6l14.046,25.135,14.231-28.184L546.937,28.7,523.188,73.24v31.6l-15.34,1.663V74.627Z" transform="translate(-42.392 -13.36)" fill="#fff"/>
            <path id="Path_100" data-name="Path 100" d="M592.087,22.78c21.531-2.31,37.887,12.383,37.887,33.914a42.407,42.407,0,0,1-37.887,42.045C570.556,101.05,554.2,86.357,554.2,64.826A42.407,42.407,0,0,1,592.087,22.78Zm0,60.619c12.475-1.294,21.993-12.383,21.993-24.95s-9.518-21.623-21.993-20.237C579.52,39.6,570,50.78,570,63.162S579.52,84.786,592.087,83.4Z" transform="translate(-47.714 -12.893)" fill="#fff"/>
            <path id="Path_101" data-name="Path 101" d="M702.976,12.1V58.027c0,18.112-10.9,30.125-28.184,31.881C657.6,91.755,646.7,82.053,646.7,64.033V18.106l15.34-1.663v47.22c0,7.485,4.9,12.105,12.66,11.274,7.947-.832,12.752-6.561,12.752-14.046V13.763l15.34-1.663Z" transform="translate(-54.737 -12.1)" fill="#fff"/>
          </g>
        </g>
      </g>
    </g>
  </g>
</svg>
