<?xml version="1.0" encoding="UTF-8"?>
<svg xmlns="http://www.w3.org/2000/svg" xmlns:xlink="http://www.w3.org/1999/xlink" version="1.1" viewBox="0 0 512 586">
  <defs>
    <style>
      .cls-1 {
        fill: none;
      }

      .cls-2 {
        mask: url(#mask);
      }

      .cls-3, .cls-4 {
        fill: #fff;
      }

      .cls-3, .cls-5 {
        fill-rule: evenodd;
      }

      .cls-6 {
        fill: #ffd109;
      }

      .cls-7 {
        fill: url(#linear-gradient);
      }

      .cls-8, .cls-9, .cls-5 {
        fill: #be1e2d;
      }

      .cls-8, .cls-10 {
        font-family: NiveauGroteskBold, 'Niveau Grotesk';
        font-size: 53.9px;
      }

      .cls-11 {
        fill: #e61d35;
        filter: url(#drop-shadow-1);
      }

      .cls-12 {
        clip-path: url(#clippath-1);
      }

      .cls-13 {
        clip-path: url(#clippath-2);
      }

      .cls-14 {
        opacity: .8;
      }

      .cls-10 {
        fill: #fff200;
      }

      .cls-15 {
        clip-path: url(#clippath);
      }
    </style>
    <clipPath id="clippath">
      <rect class="cls-1" x="-1" y="-696.7" width="510.6" height="584.5"/>
    </clipPath>
    <clipPath id="clippath-1">
      <rect class="cls-1" x="-1802.6" y="-4734.7" width="4055.3" height="6990.6"/>
    </clipPath>
    <linearGradient id="linear-gradient" x1="88.2" y1="801.6" x2="92.2" y2="801.6" gradientTransform="translate(-1379543 -155980.1) rotate(90) scale(1721.1 -1721.1)" gradientUnits="userSpaceOnUse">
      <stop offset="0" stop-color="#fff"/>
      <stop offset="0" stop-color="#fff"/>
      <stop offset="0" stop-color="#fff"/>
      <stop offset=".1" stop-color="#fcfcfc"/>
      <stop offset=".2" stop-color="#f3f3f3"/>
      <stop offset=".3" stop-color="#e4e4e4"/>
      <stop offset=".4" stop-color="#cecece"/>
      <stop offset=".4" stop-color="#b2b2b2"/>
      <stop offset=".5" stop-color="#909090"/>
      <stop offset=".6" stop-color="#686868"/>
      <stop offset=".6" stop-color="#393939"/>
      <stop offset=".7" stop-color="#050505"/>
      <stop offset=".7" stop-color="#000"/>
      <stop offset="1" stop-color="#000"/>
      <stop offset="1" stop-color="#000"/>
    </linearGradient>
    <mask id="mask" x="-1803.8" y="-4735.4" width="4057.7" height="6992" maskUnits="userSpaceOnUse">
      <rect class="cls-7" x="-1802.6" y="-4734.7" width="4055.3" height="6990.6"/>
    </mask>
    <clipPath id="clippath-2">
      <rect class="cls-1" x="-1802.6" y="-4734.7" width="4055.3" height="6990.6"/>
    </clipPath>
    <filter id="drop-shadow-1" x="-14.7" y="-611.2" width="541.7" height="472.1" filterUnits="userSpaceOnUse">
      <feOffset dx="0" dy="12.7"/>
      <feGaussianBlur result="blur" stdDeviation="5.1"/>
      <feFlood flood-color="#231f20" flood-opacity=".3"/>
      <feComposite in2="blur" operator="in"/>
      <feComposite in="SourceGraphic"/>
    </filter>
  </defs>
  <!-- Generator: Adobe Illustrator 28.7.1, SVG Export Plug-In . SVG Version: 1.2.0 Build 142)  -->
  <g>
    <g id="Layer_1">
      <g>
        <rect class="cls-6" x=".4" y="-696.7" width="511.4" height="584.5"/>
        <g class="cls-15">
          <g class="cls-14">
            <g class="cls-12">
              <g class="cls-2">
                <g class="cls-13">
                  <polygon class="cls-4" points="225.1 -1239.3 -1796.7 2252.6 -1435.4 2252.4 225.1 -1239.3 225.1 -1239.3"/>
                  <path class="cls-4" d="M225.1-1239.4h0s0,0,0,0ZM225.1-1239.3l-836.8,3491.5h223.3c0,0,613.4-3491.5,613.4-3491.5Z"/>
                  <polygon class="cls-4" points="225.1 -1239.3 225.1 -1239.3 -176.1 2252 26.2 2251.9 225.1 -1239.3"/>
                  <polygon class="cls-4" points="225.1 -1239.3 225.1 -1239.3 -1125.4 2252.3 -856.2 2252.2 225.1 -1239.3"/>
                  <polygon class="cls-4" points="225.1 -1239.4 -1797.7 -544.2 -1797.6 -181.3 225.1 -1239.4"/>
                  <path class="cls-4" d="M225.1-1239.3h0s0,0,0,0ZM225.1-1239.3L-1797.4,207.5v418c.1,0,2022.5-1864.8,2022.5-1864.8h0"/>
                  <polygon class="cls-4" points="225.1 -1239.3 225.1 -1239.3 225.1 -1239.3 -1797.1 1094.1 -1796.9 1624 225.1 -1239.3"/>
                  <polygon class="cls-4" points="225.1 -1239.3 225.1 -1239.3 628.7 2251.7 839 2251.7 225.1 -1239.3"/>
                  <path class="cls-4" d="M225.1-1239.4h0s0,0,0,0h0M225.1-1239.4h0s0,0,0,0h0M225.1-1239.4h0s0,0,0,0h0M225.1-1239.4h0s0,0,0,0h0M225.1-1239.4h0s0,0,0,0h0M225.1-1239.4h0s2023.8,2332.1,2023.8,2332.1l-.2-464.7L225.1-1239.4"/>
                  <polygon class="cls-4" points="225.2 -1239.4 225.1 -1239.4 2248.4 -545.6 2248.2 -894.7 225.2 -1239.4"/>
                  <path class="cls-4" d="M225.1-1239.4h0s0,0,0,0h0M225.1-1239.4h0s0,0,0,0h0M225.1-1239.4h0s0,0,0,0h0M225.1-1239.4h0s0,0,0,0h0M225.1-1239.4h0s0,0,0,0h0M225.1-1239.4h0s0,0,0,0h0M225.1-1239.4h0s0,0,0,0h0M225.1-1239.4h0s0,0,0,0h0M225.1-1239.4h0s0,0,0,0h0M225.1-1239.4h0s0,0,0,0h0M225.1-1239.4h0s0,0,0,0h0M225.1-1239.4h0s0,0,0,0h0M225.1-1239.4h0s0,0,0,0h0M225.1-1239.4h0s0,0,0,0h0M225.1-1239.4h0s0,0,0,0h0M225.1-1239.4h0s0,0,0,0h0M225.1-1239.4h0s0,0,0,0h0M225.1-1239.4h0s0,0,0,0h0M225.1-1239.4h0s0,0,0,0h0M225.1-1239.4h0s0,0,0,0h0M225.1-1239.4h0s0,0,0,0h0M225.1-1239.4h0l2024.2,3490.5-.2-623.5L225.1-1239.4"/>
                  <polygon class="cls-4" points="225.1 -1239.3 225.1 -1239.3 226.3 2251.9 424.7 2251.8 225.1 -1239.3"/>
                  <path class="cls-4" d="M225.1-1239.4h0s0,0,0,0ZM225.2-1239.4h0S2248.6,206,2248.6,206V-179.4c-.1,0-2023.5-1060-2023.5-1060"/>
                  <path class="cls-4" d="M225.1-1239.4h0s0,.1,0,.1h0c0-.1,0-.1,0-.1h0ZM225.1-1239.2l839.1,3490.8h242.2c0,0-1081.4-3490.8-1081.4-3490.8Z"/>
                  <path class="cls-4" d="M225.1-1239.4h0s0,0,0,0h0M225.1-1239.4h0s0,0,0,0h0M225.1-1239.4h0s0,0,0,0h0M225.1-1239.4h0s0,0,0,0h0M225.1-1239.4h0s0,0,0,0h0M225.1-1239.4h0s0,0,0,0h0M225.1-1239.4h0s0,0,0,0h0M225.1-1239.4h0s0,0,0,0h0M225.1-1239.4h0s0,0,0,0h0M225.1-1239.4h0s0,0,0,0h0M225.1-1239.4h0s0,0,0,0h0M225.1-1239.4h0s0,0,0,0h0M225.1-1239.4h0s0,0,0,0h0M225.1-1239.4h0s0,0,0,0h0M225.1-1239.4h0s0,0,0,0h0M225.1-1239.4h0s0,0,0,0h0M225.1-1239.4h0s0,0,0,0h0M225.1-1239.4h0s0,0,0,0h0M225.1-1239.4h0s0,0,0,0h0M225.1-1239.4h0s0,0,0,0h0M225.1-1239.4h0s0,0,0,0h0M225.1-1239.4h0s0,0,0,0l1352.9,3490.8h307c0-.1-1660-3490.8-1660-3490.8"/>
                </g>
              </g>
            </g>
          </g>
        </g>
        <polygon class="cls-11" points="511.6 -219 .7 -167.2 .6 -556.8 511.5 -608.6 511.6 -219"/>
        <g>
          <g>
            <path class="cls-9" d="M55.4-513.1l40.8-4.4c23.4-2.5,39.4,10,39.4,33.6,0,23.8-16,39.7-39.4,42.2l-15.8,1.7v43.8s-25,2.7-25,2.7v-119.7ZM95.9-493.4l-15.5,1.7v27.6s15.5-1.7,15.5-1.7c8.1-.9,14.1-6.1,14.1-15.2,0-9.3-6-13.3-14.1-12.4Z"/>
            <path class="cls-9" d="M149.4-522.6l41.4-4.4c23.4-2.5,39.6,8.4,39.6,30.6,0,17.1-9.8,28-21.6,32.6,15,6.1,23.9,26.3,26.8,51.7l-25.9,2.8c-4.2-25.6-14.4-43-29.1-41.4l-6.2.7v44.5s-25,2.7-25,2.7v-119.7ZM190.8-503l-16.4,1.8v26.9s16.4-1.8,16.4-1.8c7.9-.8,13.9-6.2,13.9-14.9,0-8.8-6-12.9-13.9-12.1Z"/>
            <path class="cls-9" d="M256.4-534.7l25-2.7v129.4s-25,2.7-25,2.7v-129.4Z"/>
            <path class="cls-9" d="M386.3-432.5c-8.1,4.7-17.4,8-27.3,9.1-35,3.8-61.6-20.1-61.6-55.2,0-35,26.6-64.6,61.6-68.4,9.9-1.1,19.2.2,27.3,3.2v28.7c-6.7-5.1-16.2-8.1-27.3-6.9-20.4,2.2-35.9,20.4-35.9,40.6,0,20.4,15.3,35.1,35.9,32.9,11.1-1.2,20.9-6.3,27.3-12.6v28.5Z"/>
            <path class="cls-9" d="M405.4-430.8v-119.7s68.1-7.3,68.1-7.3v24.1s-43.1,4.6-43.1,4.6v23.2s39.6-4.2,39.6-4.2v24.1s-39.6,4.2-39.6,4.2v24.1s43.1-4.6,43.1-4.6v24.1s-68.1,7.3-68.1,7.3Z"/>
            <polygon class="cls-5" points="296.2 -415.6 269 -381.8 242.1 -410.5 296.2 -415.6"/>
          </g>
          <g>
            <path class="cls-9" d="M55.2-371l42-4.5c34.5-3.7,56,17.5,56,50.6,0,33.1-21.5,58.9-55.9,62.6l-42,4.5v-113.2ZM78.9-350.8v67.6s18.2-1.9,18.2-1.9c20.5-2.2,31.6-17.9,31.6-37.2,0-19.1-11.2-32.6-31.6-30.4l-18.2,1.9Z"/>
            <path class="cls-9" d="M174.8-383.9l39.1-4.2c22.1-2.4,37.5,8,37.5,29,0,16.2-9.3,26.5-20.5,30.8,14.2,5.8,22.7,24.9,25.3,48.9l-24.5,2.6c-4-24.2-13.7-40.7-27.5-39.2l-5.8.6v42.1s-23.6,2.5-23.6,2.5v-113.2ZM213.9-365.2l-15.5,1.7v25.5s15.5-1.7,15.5-1.7c7.5-.8,13.2-5.9,13.2-14.1,0-8.3-5.7-12.2-13.2-11.4Z"/>
            <path class="cls-9" d="M329.8-402.1c33.1-3.6,58.3,19.1,58.3,52.2,0,33.1-25.1,61.1-58.3,64.7-33.1,3.6-58.3-19.1-58.3-52.2,0-33.1,25.1-61.1,58.3-64.7ZM329.8-308.9c19.1-2.1,33.8-19.1,33.8-38.4,0-19.1-14.7-33.2-33.8-31.2-19.3,2.1-34,19.3-34,38.4,0,19.3,14.7,33.2,34,31.2Z"/>
            <path class="cls-9" d="M407.7-408.8l38.6-4.1c22.1-2.4,37.3,9.5,37.3,31.8,0,22.5-15.1,37.6-37.3,40l-15,1.6v60.4s-23.6,2.5-23.6,2.5v-132.2ZM446-390.1l-14.7,1.6v26.1s14.7-1.6,14.7-1.6c7.7-.8,13.3-5.8,13.3-14.4,0-8.8-5.7-12.5-13.3-11.7Z"/>
            <polygon class="cls-5" points="445.8 -283.7 418.6 -249.8 391.7 -278.5 445.8 -283.7"/>
          </g>
          <g>
            <path class="cls-4" d="M41-521.4l40.8-4.4c23.4-2.5,39.4,10,39.4,33.6,0,23.8-16,39.7-39.4,42.2l-15.8,1.7v43.8s-25,2.7-25,2.7v-119.7ZM81.4-501.6l-15.5,1.7v27.6s15.5-1.7,15.5-1.7c8.1-.9,14.1-6.1,14.1-15.2,0-9.3-6-13.3-14.1-12.4Z"/>
            <path class="cls-4" d="M134.9-530.9l41.4-4.4c23.4-2.5,39.6,8.4,39.6,30.6,0,17.1-9.8,28-21.6,32.6,15,6.1,23.9,26.3,26.8,51.7l-25.9,2.8c-4.2-25.6-14.4-43-29.1-41.4l-6.2.7v44.5s-25,2.7-25,2.7v-119.7ZM176.3-511.2l-16.4,1.8v26.9s16.4-1.8,16.4-1.8c7.9-.8,13.9-6.2,13.9-14.9,0-8.8-6-12.9-13.9-12.1Z"/>
            <path class="cls-4" d="M241.9-543l25-2.7v129.4s-25,2.7-25,2.7v-129.4Z"/>
            <path class="cls-4" d="M371.9-440.8c-8.1,4.7-17.4,8-27.3,9.1-35,3.8-61.6-20.1-61.6-55.2,0-35,26.6-64.6,61.6-68.4,9.9-1.1,19.2.2,27.3,3.2v28.7c-6.7-5.1-16.2-8.1-27.3-6.9-20.4,2.2-35.9,20.4-35.9,40.6,0,20.4,15.3,35.1,35.9,32.9,11.1-1.2,20.9-6.3,27.3-12.6v28.5Z"/>
            <path class="cls-4" d="M390.9-439.1v-119.7s68.1-7.3,68.1-7.3v24.1s-43.1,4.6-43.1,4.6v23.2s39.6-4.2,39.6-4.2v24.1s-39.6,4.2-39.6,4.2v24.1s43.1-4.6,43.1-4.6v24.1s-68.1,7.3-68.1,7.3Z"/>
            <polygon class="cls-3" points="281.7 -423.9 254.5 -390 227.7 -418.8 281.7 -423.9"/>
          </g>
          <g>
            <path class="cls-4" d="M40.7-379.3l42-4.5c34.5-3.7,56,17.5,56,50.6,0,33.1-21.5,58.9-55.9,62.6l-42,4.5v-113.2ZM64.4-359v67.6s18.2-1.9,18.2-1.9c20.5-2.2,31.6-17.9,31.6-37.2,0-19.1-11.2-32.6-31.6-30.4l-18.2,1.9Z"/>
            <path class="cls-4" d="M160.3-392.1l39.1-4.2c22.1-2.4,37.5,8,37.5,29,0,16.2-9.3,26.5-20.5,30.8,14.2,5.8,22.7,24.9,25.3,48.9l-24.5,2.6c-4-24.2-13.7-40.7-27.5-39.2l-5.8.6v42.1s-23.6,2.5-23.6,2.5v-113.2ZM199.4-373.5l-15.5,1.7v25.5s15.5-1.7,15.5-1.7c7.5-.8,13.2-5.9,13.2-14.1,0-8.3-5.7-12.2-13.2-11.4Z"/>
            <path class="cls-4" d="M315.3-410.4c33.1-3.6,58.3,19.1,58.3,52.2,0,33.1-25.1,61.1-58.3,64.7-33.1,3.6-58.3-19.1-58.3-52.2,0-33.1,25.1-61.1,58.3-64.7ZM315.3-317.2c19.1-2.1,33.8-19.1,33.8-38.4,0-19.1-14.7-33.2-33.8-31.2-19.3,2.1-34,19.3-34,38.4s14.7,33.2,34,31.2Z"/>
            <path class="cls-4" d="M393.2-417.1l38.6-4.1c22.1-2.4,37.3,9.5,37.3,31.8,0,22.5-15.1,37.6-37.3,40l-15,1.6v60.4s-23.6,2.5-23.6,2.5v-132.2ZM431.5-398.4l-14.7,1.6v26.1s14.7-1.6,14.7-1.6c7.7-.8,13.3-5.8,13.3-14.4,0-8.8-5.7-12.5-13.3-11.7Z"/>
            <polygon class="cls-3" points="431.3 -291.9 404.1 -258 377.2 -286.8 431.3 -291.9"/>
          </g>
        </g>
        <text class="cls-8" transform="translate(40 -207.7) rotate(-6.3) scale(1 1) skewX(-6.1)"><tspan x="0" y="0">LIMITED TIME</tspan></text>
        <text class="cls-10" transform="translate(36.7 -211.4) rotate(-6.3) scale(1 1) skewX(-6.1)"><tspan x="0" y="0">LIMITED TIME</tspan></text>
      </g>
    </g>
  </g>
</svg>