<svg xmlns="http://www.w3.org/2000/svg" xmlns:xlink="http://www.w3.org/1999/xlink" width="324" height="152.181" viewBox="0 0 324 152.181">
  <defs>
    <clipPath id="clip-path">
      <path id="Path_1052" data-name="Path 1052" d="M0,82.387H324V-69.794H0Z" transform="translate(0 69.794)" fill="none"/>
    </clipPath>
  </defs>
  <g id="Group_651" data-name="Group 651" transform="translate(0 69.794)">
    <g id="Group_650" data-name="Group 650" transform="translate(0 -69.794)" clip-path="url(#clip-path)">
      <g id="Group_646" data-name="Group 646" transform="translate(56.459 80.87)">
        <path id="Path_1048" data-name="Path 1048" d="M14.8,27.955v3.657H26.014V-23.242H14.8V-1.3A12.454,12.454,0,0,0,4.7-5.763,15.764,15.764,0,0,0-7.523-.131a19.569,19.569,0,0,0-5.013,13.458A19.558,19.558,0,0,0-7.523,26.784,15.75,15.75,0,0,0,4.7,32.416a12.452,12.452,0,0,0,10.1-4.461M-1.246,13.327a9.281,9.281,0,0,1,2.34-6.509,7.907,7.907,0,0,1,6.127-2.56,7.911,7.911,0,0,1,6.129,2.56,9.281,9.281,0,0,1,2.34,6.509,9.283,9.283,0,0,1-2.34,6.511A7.911,7.911,0,0,1,7.221,22.4a7.907,7.907,0,0,1-6.127-2.56,9.283,9.283,0,0,1-2.34-6.511M60.031,30.26a18.4,18.4,0,0,0,7.206-5.889l-8.321-6.142a9.209,9.209,0,0,1-3.565,2.961A11.813,11.813,0,0,1,49.931,22.4a11.014,11.014,0,0,1-6.018-1.646,6.465,6.465,0,0,1-3.044-4.79H67.831a30.993,30.993,0,0,0,.222-3.877q0-8.484-5.346-13.165A19.257,19.257,0,0,0,49.559-5.763,19.173,19.173,0,0,0,35.595-.314a18.3,18.3,0,0,0-5.571,13.641q0,8.631,5.682,13.861a20,20,0,0,0,14.075,5.229,23.569,23.569,0,0,0,10.25-2.156M44.136,4.587a9.926,9.926,0,0,1,5.126-1.354,8.718,8.718,0,0,1,4.827,1.391,6.526,6.526,0,0,1,2.824,4.095H41.166a6.266,6.266,0,0,1,2.97-4.132m40.7-27.829H73.624V31.614H84.84Zm0,54.853,16.822-43.554a6.571,6.571,0,0,0,2.043-4.865,6.569,6.569,0,0,0-2.043-4.862,6.869,6.869,0,0,0-5.013-2.013,6.815,6.815,0,0,0-4.9,2.013,6.515,6.515,0,0,0-2.08,4.862,6.516,6.516,0,0,0,2.08,4.865,6.815,6.815,0,0,0,4.9,2.013,6.869,6.869,0,0,0,5.013-2.013m.632,6.984H91.078v36.57h11.216Zm0,36.57,15.3-18.944A7.9,7.9,0,0,1,120.12,6.6a8.907,8.907,0,0,1,12.034,0,7.9,7.9,0,0,1,2.525,6.07,7.9,7.9,0,0,1-2.525,6.073,8.907,8.907,0,0,1-12.034,0,7.9,7.9,0,0,1-2.525-6.073m21.874,30.245Q145,38.193,145,28.539v-33.5H133.787V-1.3a9.491,9.491,0,0,0-4.047-3.218,14.364,14.364,0,0,0-6.053-1.245A16.343,16.343,0,0,0,111.431-.386,18.224,18.224,0,0,0,106.3,12.668a18.229,18.229,0,0,0,5.126,13.056A16.341,16.341,0,0,0,123.687,31.1a14.33,14.33,0,0,0,6.053-1.243,9.491,9.491,0,0,0,4.047-3.218v2.047a9.379,9.379,0,0,1-2.451,6.657,8.781,8.781,0,0,1-6.759,2.632,16.635,16.635,0,0,1-11.214-4.021l-5.87,8.264q6.312,5.413,17.232,5.412,9.21,0,14.744-4.716m22.914-29.074q0-4.752,2.08-7.167a6.819,6.819,0,0,1,5.423-2.414q6.015,0,6.016,8.118V31.612h11.216V10.475q0-7.313-3.824-11.774T172.707-5.763q-7.13,0-10.324,4.535V-23.242H151.169V31.612h11.214ZM218.091,31.32v-9.8a10.663,10.663,0,0,1-4.086.658q-3.343,0-4.827-1.463t-1.485-4.753V4.624h10.4V-4.959h-10.4V-15.124H196.476V-4.959H189.05V4.624h7.427v13.6q0,6.728,4.2,10.276a16.049,16.049,0,0,0,10.732,3.545,24.333,24.333,0,0,0,6.685-.73m24.066-18.944V12.3a2.027,2.027,0,0,1,.259-.988,4.16,4.16,0,0,1,.929-1.06q.667-.585,1.262-1.025T246.5,7.843q1.3-.952,2.117-1.537a14.444,14.444,0,0,0,5.052-5.6,17.079,17.079,0,0,0,1.337-7.058,13.8,13.8,0,0,0-4.753-10.422,16.774,16.774,0,0,0-11.886-4.424,16.982,16.982,0,0,0-12.291,4.862,15.765,15.765,0,0,0-5.015,11.739h11.216A5.146,5.146,0,0,1,234.1-8.8a6.511,6.511,0,0,1,4.269-1.5,6.126,6.126,0,0,1,3.864,1.206,4.051,4.051,0,0,1,1.559,3.4,4.226,4.226,0,0,1-.669,2.3,5.732,5.732,0,0,1-1.3,1.535q-.631.478-2.3,1.5t-2.265,1.463a18.434,18.434,0,0,0-4.79,4.5,9.3,9.3,0,0,0-1.522,5.375v1.389Zm2.3,11.995a7.478,7.478,0,0,0-2.34-5.521,7.975,7.975,0,0,0-11.216,0,7.686,7.686,0,0,0,0,11.044,7.975,7.975,0,0,0,11.216,0,7.479,7.479,0,0,0,2.34-5.523" transform="translate(12.536 23.682)" fill="#0c0c0c"/>
      </g>
      <g id="Group_647" data-name="Group 647" transform="translate(0 38.126)">
        <path id="Path_1049" data-name="Path 1049" d="M9.492,20.744a9.642,9.642,0,0,0,3.454-2.808v3.452H18.7V-4.381H12.946V-.928A9.619,9.619,0,0,0,9.492-3.736,10.567,10.567,0,0,0,4.573-4.9,11.766,11.766,0,0,0-4.4-.98,13.439,13.439,0,0,0-8.041,8.5,13.432,13.432,0,0,0-4.4,17.986,11.761,11.761,0,0,0,4.573,21.9a10.567,10.567,0,0,0,4.919-1.16M-2.18,8.5a8.314,8.314,0,0,1,2.2-5.874,7.3,7.3,0,0,1,5.6-2.37,7.3,7.3,0,0,1,5.6,2.37,8.314,8.314,0,0,1,2.2,5.874,8.316,8.316,0,0,1-2.2,5.876,7.3,7.3,0,0,1-5.6,2.37,7.3,7.3,0,0,1-5.6-2.37A8.316,8.316,0,0,1-2.18,8.5m34.8,12.884V.671h6.543V-4.381H32.624V-8.04a4.534,4.534,0,0,1,1.049-3.375,4.707,4.707,0,0,1,3.349-1.005,7.888,7.888,0,0,1,3.087.517v-5.052a13.744,13.744,0,0,0-4.291-.617,9.424,9.424,0,0,0-6.465,2.189,8.035,8.035,0,0,0-2.486,6.365v4.638H21.425V.671h5.442V21.387Zm26.955-.307V16.028a8.957,8.957,0,0,1-3.088.464,4.814,4.814,0,0,1-3.323-.979A4.376,4.376,0,0,1,52.1,12.164V.671h7.483V-4.381H52.1v-7.163H46.337v7.163H41.889V.671h4.448V13.09a7.99,7.99,0,0,0,2.514,6.365,9.436,9.436,0,0,0,6.437,2.191,14.921,14.921,0,0,0,4.291-.567m28.211-5.155-4.4-3.092a9.1,9.1,0,0,1-13.085,1.984,7.022,7.022,0,0,1-2.46-5.076H88.417q.052-.824.052-1.856,0-5.979-3.585-9.38a12.6,12.6,0,0,0-9.029-3.4,13.324,13.324,0,0,0-9.786,3.84A12.911,12.911,0,0,0,62.2,8.5a12.888,12.888,0,0,0,3.848,9.638A13.444,13.444,0,0,0,75.856,21.9q8.167,0,11.934-5.979M70.806,1.392A8.192,8.192,0,0,1,75.646-.1a7.279,7.279,0,0,1,4.581,1.52,6.531,6.531,0,0,1,2.433,4.2H68.111a6.63,6.63,0,0,1,2.7-4.226M98.048,21.387V8.812a8.487,8.487,0,0,1,1.832-5.8A5.707,5.707,0,0,1,104.328.928a8.267,8.267,0,0,1,2.878.464V-4.431a10.21,10.21,0,0,0-2.25-.207A7.328,7.328,0,0,0,100.743-3.3a6.787,6.787,0,0,0-2.7,3.5V-4.381H92.29V21.387Zm19.888,0V8.71a9.348,9.348,0,0,1,1.884-6.236A6.1,6.1,0,0,1,124.687.259a4.949,4.949,0,0,1,3.977,1.725A7.231,7.231,0,0,1,130.131,6.8V21.387h5.756V5.875a11.071,11.071,0,0,0-2.721-7.834A9.441,9.441,0,0,0,125.89-4.9q-5.495,0-7.954,4.021V-4.381h-5.759V21.387ZM166.715,8.5A12.831,12.831,0,0,0,162.764-1,14.188,14.188,0,0,0,143.24-1,12.831,12.831,0,0,0,139.289,8.5a12.832,12.832,0,0,0,3.951,9.509,14.188,14.188,0,0,0,19.524,0A12.832,12.832,0,0,0,166.715,8.5m-19.391,5.8A8.088,8.088,0,0,1,145.1,8.5a8.1,8.1,0,0,1,2.224-5.8,7.985,7.985,0,0,1,11.3,0,8.11,8.11,0,0,1,2.226,5.8,8.1,8.1,0,0,1-2.226,5.8,7.98,7.98,0,0,1-11.3,0m48.648-5.8A12.831,12.831,0,0,0,192.021-1,14.188,14.188,0,0,0,172.5-1,12.831,12.831,0,0,0,168.546,8.5a12.832,12.832,0,0,0,3.951,9.509,14.188,14.188,0,0,0,19.524,0A12.832,12.832,0,0,0,195.972,8.5m-19.391,5.8a8.088,8.088,0,0,1-2.224-5.8,8.1,8.1,0,0,1,2.224-5.8,7.985,7.985,0,0,1,11.3,0,8.11,8.11,0,0,1,2.226,5.8,8.1,8.1,0,0,1-2.226,5.8,7.98,7.98,0,0,1-11.3,0m28.865,7.086V8.71a9.348,9.348,0,0,1,1.884-6.236A6.1,6.1,0,0,1,212.2.259a4.949,4.949,0,0,1,3.977,1.725A7.231,7.231,0,0,1,217.641,6.8V21.387H223.4V5.875a11.071,11.071,0,0,0-2.721-7.834A9.444,9.444,0,0,0,213.4-4.9q-5.495,0-7.954,4.021V-4.381h-5.759V21.387Z" transform="translate(8.041 17.573)" fill="#0c0c0c"/>
      </g>
      <g id="Group_648" data-name="Group 648" transform="translate(51.139 0)">
        <path id="Path_1050" data-name="Path 1050" d="M12.515,15.533,19.043-3.6H14.5L10.223,9.6,5.832-3.6H2.568L-1.9,9.6-6.1-3.6H-10.6l6.526,19.129H-.033L4.2,3.177,8.475,15.533ZM24.948,6.123a6.942,6.942,0,0,1,1.4-4.629A4.526,4.526,0,0,1,29.961-.153a3.671,3.671,0,0,1,2.952,1.282A5.372,5.372,0,0,1,34,4.708V15.533h4.274V4.018A8.217,8.217,0,0,0,36.253-1.8a7.006,7.006,0,0,0-5.4-2.18,6.4,6.4,0,0,0-5.9,2.983V-13.159H20.674V15.533h4.274Zm28.867,8.933a7.122,7.122,0,0,0,2.564-2.087v2.564h4.274V-3.6H56.379v2.564a7.145,7.145,0,0,0-2.564-2.087,7.86,7.86,0,0,0-3.652-.859A8.736,8.736,0,0,0,43.5-1.071,9.968,9.968,0,0,0,40.8,5.97a9.967,9.967,0,0,0,2.7,7.038,8.736,8.736,0,0,0,6.663,2.907,7.86,7.86,0,0,0,3.652-.859M45.152,5.97a6.175,6.175,0,0,1,1.631-4.363,5.79,5.79,0,0,1,8.314,0A6.177,6.177,0,0,1,56.73,5.97,6.172,6.172,0,0,1,55.1,10.331a5.79,5.79,0,0,1-8.314,0A6.17,6.17,0,0,1,45.152,5.97M76.5,15.3v-3.75a5.868,5.868,0,0,1-2.292.384,3.5,3.5,0,0,1-2.488-.746,3.384,3.384,0,0,1-.776-2.508V.155H76.5V-3.6H70.949V-8.914H66.675V-3.6h-4.04V.155h4.04V9.374A5.962,5.962,0,0,0,68.52,14.1a6.993,6.993,0,0,0,4.8,1.627A11.118,11.118,0,0,0,76.5,15.3M86.179-8.761a3.191,3.191,0,0,0-.99-2.353,3.287,3.287,0,0,0-2.39-.975,3.237,3.237,0,0,0-2.351.975,3.185,3.185,0,0,0-.992,2.353,3.138,3.138,0,0,0,.565,1.818A3.425,3.425,0,0,0,81.4-5.737L78.68-.153h2.643l4.2-6.541a3.683,3.683,0,0,0,.661-2.067M97.445,14.31a5.278,5.278,0,0,0,1.982-4.324,4.936,4.936,0,0,0-1.361-3.654,9.514,9.514,0,0,0-4.08-2.161L92.007,3.6A4.371,4.371,0,0,1,90.18,2.64a1.829,1.829,0,0,1-.506-1.3A1.481,1.481,0,0,1,90.453.02a3.415,3.415,0,0,1,1.825-.478,4.466,4.466,0,0,1,3.691,1.951l2.952-2.22q-2.057-3.251-6.565-3.251a8.037,8.037,0,0,0-4.974,1.491A4.731,4.731,0,0,0,85.4,1.494q-.078,4.474,5.091,5.852l1.709.46a7.34,7.34,0,0,1,2.351,1.071,1.8,1.8,0,0,1-.157,2.869,3.5,3.5,0,0,1-2,.536,5.676,5.676,0,0,1-2.8-.709,4.284,4.284,0,0,1-1.864-1.932l-3.149,2.22a6.568,6.568,0,0,0,3.07,3.04,10.593,10.593,0,0,0,4.74,1.014,7.764,7.764,0,0,0,5.05-1.6" transform="translate(10.602 13.159)" fill="#0c0c0c"/>
      </g>
      <g id="Group_649" data-name="Group 649" transform="translate(166.576 11.456)">
        <path id="Path_1051" data-name="Path 1051" d="M16.377.307H7.688L1.252,16.233-5.239.307h-8.635L-2.987,24.582-8.432,36.847H.1ZM42.39,13.191a12.767,12.767,0,0,0-4.029-9.559A13.51,13.51,0,0,0,28.625-.26a13.5,13.5,0,0,0-9.736,3.892,12.767,12.767,0,0,0-4.029,9.559,12.772,12.772,0,0,0,4.029,9.561,13.51,13.51,0,0,0,9.736,3.89,13.517,13.517,0,0,0,9.736-3.89,12.772,12.772,0,0,0,4.029-9.561m-19.576,0a6.159,6.159,0,0,1,1.651-4.483,5.549,5.549,0,0,1,4.16-1.7,5.549,5.549,0,0,1,4.16,1.7,6.167,6.167,0,0,1,1.648,4.483,6.167,6.167,0,0,1-1.648,4.483,5.549,5.549,0,0,1-4.16,1.7,5.549,5.549,0,0,1-4.16-1.7,6.159,6.159,0,0,1-1.651-4.483M61.7,23.448v2.627h7.9V.307H61.7V12.831q0,6.751-4.919,6.751-4.033,0-4.032-5.926V.307h-7.9V14.994q0,5.361,2.564,8.5a8.91,8.91,0,0,0,7.328,3.144q4.71,0,6.96-3.194m20.2,2.627V13.861A7.074,7.074,0,0,1,83.291,9.3a4.722,4.722,0,0,1,3.9-1.725,10.954,10.954,0,0,1,3.506.617V.307A10.227,10.227,0,0,0,88.133,0,6.594,6.594,0,0,0,84.259,1.21,6.122,6.122,0,0,0,81.9,4.173V.307H74V26.075Z" transform="translate(13.874 0.26)" fill="#0c0c0c"/>
      </g>
    </g>
  </g>
</svg>
