<svg xmlns="http://www.w3.org/2000/svg" xmlns:xlink="http://www.w3.org/1999/xlink" width="417" height="75.51" viewBox="0 0 417 75.51">
  <defs>
    <clipPath id="clip-path">
      <path id="Path_1047" data-name="Path 1047" d="M0,45H417v-75.51H0Z" transform="translate(0 30.506)" fill="none"/>
    </clipPath>
  </defs>
  <g id="Group_645" data-name="Group 645" transform="translate(0 30.506)">
    <g id="Group_644" data-name="Group 644" transform="translate(0 -30.506)" clip-path="url(#clip-path)">
      <g id="Group_642" data-name="Group 642" transform="translate(0 43.621)">
        <path id="Path_1045" data-name="Path 1045" d="M8.512.069H5.52L-5.77,26.958h3.636l3.411-8.116H12.453l3.559,8.116h4.243ZM2.6,15.762,5.557,8.416a23.366,23.366,0,0,0,1.1-3.23,28.476,28.476,0,0,0,1.213,3.23l3.181,7.347ZM48.9.069H45.334v20.5L28.324.069H23.059V.453c1.78.693,1.856,2.656,1.856,5.579V26.958h3.6V6.339L45.448,26.958H48.9Zm24.587,0L66.624,9.456,59.768.069H53.594V.453C55.411.993,57,3.109,59.161,6.032l5.267,7.077V26.958h4.166V13.109l9.7-13.04Zm27.389,0H79.582V3.262h8.559v23.7h4.205V3.262h8.525Zm8.941,0h-6.025V.493c1.782.653,1.856,2.653,1.856,5.54V26.958h4.168Zm34.815,0h-3.639l-8.978,13.579L122.956.069h-5.871V.453c1.78.693,1.856,2.656,1.856,5.579V26.958h3.827V6.8h.074l8.032,12.077h1.441L140.345,6.8h.077V26.958h4.205Zm24.738,23.7H157.545V14.842h11.062V11.762H157.545v-8.5h11.478V.069h-17.5V.453c1.78.693,1.856,2.656,1.856,5.579V26.958h15.988Zm11.062,2.116c0-1.923-.948-3.386-2.54-3.386a2.37,2.37,0,0,0-2.386,2.423,2.211,2.211,0,0,0,2.2,2.386,2.116,2.116,0,0,0,.681-.116v.23a4.087,4.087,0,0,1-2.386,3.847l.342.577a6.1,6.1,0,0,0,4.092-5.693ZM207.268.069h-2.993l-11.29,26.889h3.636l3.411-8.116h11.176l3.559,8.116h4.245ZM201.36,15.762l2.953-7.347a23.362,23.362,0,0,0,1.1-3.23,28.483,28.483,0,0,0,1.213,3.23l3.181,7.347ZM246.137.069h-3.562v20.5L225.566.069H220.3V.453c1.78.693,1.856,2.656,1.856,5.579V26.958h3.6V6.339l16.933,20.619h3.448Zm23.069,0L262.35,9.456,255.494.069h-6.176V.453c1.819.54,3.411,2.656,5.569,5.579l5.265,7.077V26.958h4.168V13.109l9.7-13.04Zm41.938,0L306.3,12.956c-.948,2.5-1.554,4.309-2.2,6.577a69.914,69.914,0,0,0-2.426-6.614L296.37-.047h-2.312l-5.151,13c-.985,2.5-1.705,4.463-2.312,6.577a68.533,68.533,0,0,0-2.235-6.614L279.549.069h-5.567V.453c1.515.693,2.309,2.616,3.446,5.579l8.22,21.116h1.327l8.069-20,8.3,20h1.287L315.234.069Zm30.723,0H337.7V11.762H323.418V.069H317.4V.493c1.78.653,1.856,2.653,1.856,5.54V26.958h4.166V14.879H337.7V26.958h4.168Zm23.22,23.7H353.269V14.842h11.062V11.762H353.269v-8.5h11.478V.069h-17.5V.453c1.78.693,1.856,2.656,1.856,5.579V26.958h15.985ZM388.2,21.5c-2.084-3.307-3.485-6.116-5.985-7.577a6.563,6.563,0,0,0,4.849-6.309c0-4.653-3.334-7.54-8.713-7.54h-9.205V.453c1.78.693,1.856,2.656,1.856,5.579V26.958h4.166V15.186h1.4c2.2,0,3.636.77,7.045,6.233l3.448,5.54h4.547ZM382.819,7.532c0,2.23-1.25,4.653-5.267,4.653h-2.386V2.993h2.386c3.676,0,5.267,1.923,5.267,4.423ZM411.23,23.765H399.411V14.842h11.062V11.762H399.411v-8.5h11.48V.069h-17.5V.453c1.78.693,1.856,2.656,1.856,5.579V26.958H411.23Z" transform="translate(5.77 0.047)" fill="#1381b5"/>
      </g>
      <g id="Group_643" data-name="Group 643" transform="translate(28.252 0)">
        <path id="Path_1046" data-name="Path 1046" d="M14.044,12.128a11.16,11.16,0,0,1-7.235,2.653c-5.153,0-9.055-3.577-9.055-8.886,0-5.347,3.9-8.884,9.055-8.884A10.953,10.953,0,0,1,14.044-.335V-6.068C11.96-7.568,9.2-8.221,5.787-8.221-2.815-8.221-9.52-2.874-9.52,5.9c0,8.733,6.705,14.119,15.307,14.119,3.408,0,6.173-.693,8.257-2.193Zm25.418.77-.908-1.5c-1.213-2.04-2.386-4-3.787-4.923A6.638,6.638,0,0,0,38.745.358c0-4.886-3.562-7.926-8.866-7.926H16.735v.847c2.007.693,2.5,2.693,2.5,5.54v20.5h6.856v-11h1.173c1.29,0,2.349.153,5.381,5.423l3.181,5.577h7.312ZM31.812.549c0,2.156-1.364,3.463-3.713,3.463H26.092V-2.951H28.1c2.349,0,3.713,1.309,3.713,3.5M63.141,14.475h-10.5V8.051H62.5V3.319H52.646v-6.04H62.837V-7.568H43.29v.847c2.007.693,2.5,2.693,2.5,5.54v20.5H63.141ZM82.651-7.568H75.6L65.035,19.321h6.592l2.045-5.77H83.938l2.2,5.77H93.56ZM75.3,9.012l2.765-7.77a14.312,14.312,0,0,0,.567-2.27h.077a9.047,9.047,0,0,0,.569,2.27l2.953,7.77Zm50.08-16.579h-6.059L111.1,3.858,102.765-7.568h-8.9v.847c2.007.693,2.5,2.693,2.5,5.54v20.5h6.592V3.128l6.819,9.616,2.084.037,6.931-9.809V19.321h6.592Zm23.488,0-6.062,9.733-6.327-9.733h-9.243v.847c2.312.577,3.485,2.616,5.455,5.579l6.1,9.154V19.321h6.819V7.819L156.144-7.568Zm39.094,0h-22.8v4.847h7.879V19.321H179.9V-2.721h8.067Zm21.253,22.042H198.724V8.051h9.849V3.319h-9.849v-6.04h10.191V-7.568h-19.55v.847c2.01.693,2.5,2.693,2.5,5.54v20.5h17.349ZM229.9,4.551,238.88-7.568h-7.54L226.417-.412l-5.04-7.156h-9.735v.847c2.5.693,3.9,2.733,5.946,5.579L221.87,4.7,211.224,19.321h7.881l6.515-9.27,6.478,9.27h8.3ZM263.313-7.568h-22.8v4.847h7.879V19.321h6.856V-2.721h8.069Zm28.414,0h-6.705V8.589c0,3.847-2.2,5.963-5.532,5.963-4.243,0-5.493-3.23-5.493-5.963V-7.568H264.64v.847c2.045.693,2.5,2.653,2.5,5.54V8.435c0,7.423,4.621,11.5,12.312,11.5,7.651,0,12.275-4.079,12.275-11.5ZM317.94,12.9l-.908-1.5c-1.213-2.04-2.386-4-3.787-4.923A6.638,6.638,0,0,0,317.222.358c0-4.886-3.562-7.926-8.866-7.926H295.212v.847c2.007.693,2.5,2.693,2.5,5.54v20.5h6.857v-11h1.173c1.29,0,2.349.153,5.381,5.423l3.181,5.577h7.312ZM310.289.549c0,2.156-1.364,3.463-3.713,3.463h-2.007V-2.951h2.007c2.349,0,3.713,1.309,3.713,3.5m31.329,13.926h-10.5V8.051h9.852V3.319h-9.852v-6.04h10.191V-7.568H321.767v.847c2.007.693,2.5,2.693,2.5,5.54v20.5h17.352Zm11.062,2.77a5.587,5.587,0,0,0-.418-2.153,3.219,3.219,0,0,0-3.03-1.886,3.268,3.268,0,0,0-3.22,3.27,2.74,2.74,0,0,0,2.879,3.04h.228a2.987,2.987,0,0,1-2.537,2l1.1,2.077a6.071,6.071,0,0,0,4.166-3.077,6.963,6.963,0,0,0,.834-3.27" transform="translate(9.52 8.221)" fill="#1381b5"/>
      </g>
    </g>
  </g>
</svg>
