<svg xmlns="http://www.w3.org/2000/svg" xmlns:xlink="http://www.w3.org/1999/xlink" width="500" height="40.471" viewBox="0 0 500 40.471">
  <defs>
    <clipPath id="clip-path">
      <path id="Path_1055" data-name="Path 1055" d="M0,25.951H500V-14.52H0Z" transform="translate(0 14.52)" fill="none"/>
    </clipPath>
  </defs>
  <g id="Group_656" data-name="Group 656" transform="translate(0 14.52)">
    <g id="Group_655" data-name="Group 655" transform="translate(0 -14.52)" clip-path="url(#clip-path)">
      <g id="Group_653" data-name="Group 653" transform="translate(163.553 0)">
        <path id="Path_1053" data-name="Path 1053" d="M0,25.486H8.139L9.2,18.463h5.853l1.059,7.024h8.362L17.058-13.647H7.47ZM10.257,11.327l1.9-12.264,1.84,12.264ZM36.68,25.932a10.425,10.425,0,0,0,5.8-1.505V16.4A8.558,8.558,0,0,1,38.3,17.794c-3.177,0-5.407-1.9-5.407-11.093V5.251c0-8.808,2.4-11.149,5.184-11.149A8.122,8.122,0,0,1,42.311-4.5v-8.418a10.836,10.836,0,0,0-5.073-1.059c-6.8,0-12.877,5.3-12.877,19.009V6.979c0,13.156,5.463,18.953,12.32,18.953m12.654-.446H57.7V-5.564h5.129v-7.972H44.206v7.972h5.129Zm15.776,0h8.362V-13.535H65.111Zm17.114.111h8.864l7.3-39.133H90.085L86.74,9.822,83.451-13.535H74.866Zm17.5-.111h17.058V17.515h-8.7V9.766h7.581v-7.8h-7.581V-5.619h8.529v-7.916H99.726Zm27.984,0h8.306V13.724h.223C142.371,13.5,148.5,9.711,148.5.234V-.212c0-9.254-5.352-13.323-13.1-13.323H127.71ZM136.016,6.31V-6.121h.167c2.4,0,4.014,1.728,4.014,5.909V.457c0,4.069-1.728,5.742-4.069,5.853ZM150.51,25.486h8.306V12.777h.669l3.958,12.71h8.919l-5.184-15.441c2.509-1.951,4.571-5.017,4.571-10.369V-.881c0-4.237-1.226-7.247-3.289-9.365-2.286-2.286-5.686-3.289-9.588-3.289H150.51Zm8.306-19.734V-6.065h.223c2.4,0,4.181,1.282,4.181,5.463V.234c0,4.014-1.728,5.519-4.125,5.519Zm26.256,20.459c7.024,0,11.484-6.355,11.484-19.009V4.749c0-12.71-4.46-19.009-11.484-19.009-7.08,0-11.539,6.3-11.539,19.009V7.2c0,12.654,4.46,19.009,11.539,19.009m0-7.749c-1.84,0-3.01-2.007-3.01-11.2V4.638c0-9.142,1.171-11.2,3.01-11.2s2.954,2.063,2.954,11.2v2.62c0,9.2-1.115,11.2-2.954,11.2m14.048,7.024h7.86c7.972,0,13.435-3.623,13.435-10.926v-.5c0-4.738-2.843-7.135-5.742-8.585A9.2,9.2,0,0,0,219.857-3v-.446a9.2,9.2,0,0,0-2.564-6.8c-2.4-2.4-6.3-3.289-10.48-3.289H199.12Zm12.6-27.26c0,2.9-1.672,4.237-4.125,4.237h-.334V-5.842h.334c2.453,0,4.125,1.115,4.125,4.014Zm.334,15.218v.223c0,2.732-1.84,4.125-4.348,4.125h-.446V9.265h.446c2.509,0,4.348,1.394,4.348,4.181m10.533,12.041h8.362V-13.535h-8.362Zm22.521.725c7.024,0,11.484-6.355,11.484-19.009V4.749c0-12.71-4.46-19.009-11.484-19.009-7.08,0-11.539,6.3-11.539,19.009V7.2c0,12.654,4.46,19.009,11.539,19.009m0-7.749c-1.84,0-3.01-2.007-3.01-11.2V4.638c0-9.142,1.171-11.2,3.01-11.2s2.954,2.063,2.954,11.2v2.62c0,9.2-1.115,11.2-2.954,11.2m17.058,7.024h8.362V-5.564h5.129v-7.972H257.036v7.972h5.129Zm15.776,0H286.3V-13.535h-8.362Zm23.3.446a10.424,10.424,0,0,0,5.8-1.505V16.4a8.558,8.558,0,0,1-4.181,1.394c-3.177,0-5.407-1.9-5.407-11.093V5.251c0-8.808,2.4-11.149,5.184-11.149A8.122,8.122,0,0,1,306.873-4.5v-8.418a10.836,10.836,0,0,0-5.073-1.059c-6.8,0-12.877,5.3-12.877,19.009V6.979c0,13.156,5.463,18.953,12.32,18.953m15.776,0c5.742,0,10.536-4.4,10.536-10.982v-.223c0-5.017-1.9-7.693-7.191-12.877-2.62-2.676-3.4-3.735-3.4-5.129v-.056a2.7,2.7,0,0,1,2.954-2.732,11.983,11.983,0,0,1,6.076,1.9v-8.418a16.64,16.64,0,0,0-6.912-1.394c-5.965,0-10.48,4.237-10.48,10.982v.167c0,5.24,2.23,7.972,7.191,12.654,2.62,2.564,3.4,3.958,3.4,5.184v.056c0,1.9-1.226,2.9-3.177,2.9-2.23,0-4.46-.948-6.857-2.341v8.306a16.231,16.231,0,0,0,7.86,2.007m14.82-27.115h1.555l-.357-3.738,2.631,2.049.78-1.335-3.024-1.527,3.024-1.494-.78-1.366-2.631,2.049.357-3.7h-1.555l.323,3.7-2.6-2.049-.811,1.366,3.021,1.494L328.75-4.206l.811,1.335,2.6-2.049Z" transform="translate(0 14.26)" fill="#1f4c23"/>
      </g>
      <g id="Group_654" data-name="Group 654" transform="translate(0 0)">
        <path id="Path_1054" data-name="Path 1054" d="M2.574,25.486h8.362V-13.7H4.971L-1.44-11.7v8.139L2.574-4.783Zm20.124,0h7.86c7.972,0,13.435-3.623,13.435-10.926v-.5c0-4.738-2.843-7.135-5.742-8.585A9.2,9.2,0,0,0,43.435-3v-.446a9.2,9.2,0,0,0-2.564-6.8c-2.4-2.4-6.3-3.289-10.48-3.289H22.7ZM35.3-1.773c0,2.9-1.672,4.237-4.125,4.237h-.334V-5.842h.334c2.453,0,4.125,1.115,4.125,4.014Zm.334,15.218v.223c0,2.732-1.84,4.125-4.348,4.125h-.446V9.265h.446c2.509,0,4.348,1.394,4.348,4.181M46.167,25.486h8.362V-13.535H46.167Zm11.537,0H73.479V17.515H66.065v-31.05H57.7Zm17.95,0H91.429V17.515H84.015v-31.05H75.653Zm18.062,0h8.362V-13.535H93.715Zm22.521.725c7.024,0,11.484-6.355,11.484-19.009V4.749c0-12.71-4.46-19.009-11.484-19.009-7.08,0-11.539,6.3-11.539,19.009V7.2c0,12.654,4.46,19.009,11.539,19.009m0-7.749c-1.84,0-3.01-2.007-3.01-11.2V4.638c0-9.142,1.171-11.2,3.01-11.2s2.955,2.063,2.955,11.2v2.62c0,9.2-1.115,11.2-2.955,11.2m14.048,7.024h8.027V6.923l6.466,18.563h7.637V-13.535h-8.027V4.08l-6.076-17.616h-8.027Z" transform="translate(1.44 14.26)" fill="#ffc14b"/>
      </g>
    </g>
  </g>
</svg>
